<svg xmlns="http://www.w3.org/2000/svg" viewBox="0 0 671.55 459.96"><defs><style>.cls-1{opacity:0.79;}.cls-2{opacity:0.6;}.cls-3{fill:#9474ff;}.cls-4{opacity:0.75;}.cls-5{fill:#3051ff;}</style></defs><title>Asset 4</title><g id="Layer_2" data-name="Layer 2"><g id="Layer_1-2" data-name="Layer 1"><g class="cls-1"><g class="cls-2"><path class="cls-3" d="M671.47,140.31A19.46,19.46,0,0,1,662,147c-1.47.5-3,1-4.54,1.47-11.06,3.52-23.59,7.51-26,19.35-1.16,5.66.62,11.3,2.34,16.76a52,52,0,0,1,2.71,11.55c.55,7.42-2.39,14.49-8.29,19.92-8.32,7.68-21,10.93-31.62,8.1-14.5-3.86-26.29-14.72-37.7-25.21-2.78-2.55-5.65-5.2-8.5-7.68-13.23-11.53-32.87-23.76-51.34-16.58-21.91,8.51-25.84,34.43-30,61.87-3.74,24.62-7.61,50.08-25.44,62.58-14.65,10.28-33.86,7.67-52.28,4.1L273.29,280.44c-24.24-4.69-51.72-10-77.35-2.75a72.81,72.81,0,0,0-26.11,13.66,65.24,65.24,0,0,0-18.5,24,49.45,49.45,0,0,0-4.19,14.88c-.66,6.92,5,13.28,9.6,18.38.89,1,1.73,1.94,2.49,2.84a75.91,75.91,0,0,0,6.86,6.8c5,4.63,10.27,9.4,12.18,15.37,1.35,4.25-.6,11.67-1.88,16.59l-.35,1.32a82,82,0,0,1-17.27,32.52A99.76,99.76,0,0,1,96.57,458c-33.17,4.3-66-5.57-96.43-17.44V441c30.43,11.86,63.31,21.72,96.51,17.41a100.2,100.2,0,0,0,62.45-34,82.34,82.34,0,0,0,17.35-32.68c.11-.41.22-.85.35-1.32,1.29-5,3.25-12.45,1.87-16.81-1.94-6.07-7.2-10.88-12.28-15.54a75.24,75.24,0,0,1-6.83-6.77c-.76-.9-1.61-1.84-2.5-2.84-4.52-5-10.14-11.34-9.5-18.08a48.76,48.76,0,0,1,4.12-14.74c7.69-17.55,24.69-31.91,44.38-37.47,25.56-7.23,53-1.92,77.2,2.76l118,22.78c18.49,3.58,37.78,6.2,52.54-4.15,18-12.61,21.84-38.15,25.6-62.85,4.15-27.33,8.07-53.13,29.78-61.57,18.31-7.12,37.84,5,51,16.52,2.85,2.48,5.72,5.12,8.49,7.67,11.44,10.52,23.25,21.4,37.84,25.29,10.71,2.86,23.54-.43,31.94-8.17,6-5.52,9-12.71,8.41-20.25a51.83,51.83,0,0,0-2.74-11.65c-1.78-5.65-3.46-11-2.33-16.54,2.39-11.63,14.82-15.58,25.78-19.07,1.58-.5,3.07-1,4.54-1.47a19.84,19.84,0,0,0,9.33-6.5Z"/><path class="cls-3" d="M671.47,119.09A15.86,15.86,0,0,0,665.3,118c-2,.17-3.58,1.83-5.1,5.22-.76,1.69-1.4,3.52-2,5.3a38.32,38.32,0,0,1-1.83,4.67,24.33,24.33,0,0,1-4.44,6.12,20.08,20.08,0,0,1-7.68,4.68c-1.26.44-2.55.86-3.87,1.3-8.42,2.79-17.12,5.68-21.8,12.12a17,17,0,0,0-2.94,6.8c-1,5,.33,10,1.6,14.83l.27,1A45.11,45.11,0,0,1,619.33,191c.06,6.84-3.11,13.27-8.9,18.11a34.3,34.3,0,0,1-19.88,7.64,31.09,31.09,0,0,1-10.11-1.1C568,212.08,558,203.6,547,193.76l-2.09-1.89-3-2.74c-2.08-1.87-3.77-3.36-5.32-4.68-9.28-7.93-23.33-17.43-37.58-17.62a30.64,30.64,0,0,0-7.63.85,29.16,29.16,0,0,0-3.55,1.1c-9.18,3.48-15.83,10.69-20.34,22-4.09,10.29-6.11,22.37-8.26,35.16l-.35,2c-3.66,21.69-7.81,46.27-25,58h0c-14.17,9.59-32.19,7.3-50.95,3.86-6.93-1.27-13.07-2.38-18.77-3.39-13.58-2.39-25.44-4.33-36.28-5.93-6.92-1-13.43-1.94-19.9-2.79-5.95-.8-12.07-1.95-18-3.06-3.28-.62-6.67-1.25-10-1.83-2.51-.43-5.11-.86-7.7-1.28-1.36-.22-2.72-.44-4.08-.64-4-.61-7.08-1-10-1.37-4.81-.57-9.87-1.05-15.47-1.47-9.38-.69-21.71-1.27-33.93.44-1.06.15-2.12.31-3.15.49a90.77,90.77,0,0,0-12.17,3A74.3,74.3,0,0,0,157,297.57a63.16,63.16,0,0,0-6.75,11.32A44.53,44.53,0,0,0,147,320.18a28.08,28.08,0,0,0-.36,3.43,18.85,18.85,0,0,0,2,8.72,43.2,43.2,0,0,0,2.54,4.62c1,1.69,2.14,3.27,3.22,4.8.67,1,1.3,1.87,1.87,2.74a69.05,69.05,0,0,0,5.46,6.84c4,4.56,8.07,9.28,9.19,14.93.38,1.93.12,4.73-.77,8.33a85,85,0,0,1-2.65,8.24A74.7,74.7,0,0,1,148.71,411,92,92,0,0,1,130,424.78a104.77,104.77,0,0,1-20.73,8.86A110.36,110.36,0,0,1,88.4,438c-2.16.23-4.37.41-6.56.54-16.3,1-33.36-.79-52.15-5.37-8.91-2.16-18.42-5-29.59-8.87v.4c11.13,3.84,20.62,6.69,29.51,8.84,18.82,4.59,35.91,6.35,52.25,5.38,2.19-.13,4.4-.31,6.57-.54a112.2,112.2,0,0,0,21-4.33,105.39,105.39,0,0,0,20.79-8.89A91.73,91.73,0,0,0,149,411.22,75.11,75.11,0,0,0,167.77,383c.69-1.91,1.86-5.1,2.66-8.29.91-3.66,1.17-6.52.78-8.51-1.14-5.75-5.28-10.51-9.28-15.11a65.77,65.77,0,0,1-5.43-6.8c-.57-.88-1.21-1.79-1.88-2.75-1.07-1.53-2.18-3.11-3.2-4.78a40.08,40.08,0,0,1-2.46-4.56,18.45,18.45,0,0,1-2-8.53,27.48,27.48,0,0,1,.36-3.38,44.15,44.15,0,0,1,3.29-11.19,62,62,0,0,1,6.7-11.25,74,74,0,0,1,36.35-25.49,88,88,0,0,1,12.1-2.9c1-.18,2.09-.34,3.15-.49,12.18-1.71,24.49-1.13,33.86-.44,5.59.42,10.65.9,15.45,1.47,2.87.34,5.94.76,9.94,1.36l4.08.64c2.59.42,5.18.86,7.7,1.29,3.33.57,6.72,1.21,10,1.82,5.93,1.11,12.06,2.26,18,3.07,6.46.85,13,1.76,19.89,2.79,10.83,1.6,22.7,3.54,36.28,5.93,5.69,1,11.83,2.12,18.76,3.39,18.83,3.45,36.92,5.74,51.19-3.92h0c17.32-11.78,21.49-36.45,25.17-58.21l.34-2c2.15-12.77,4.17-24.83,8.24-35.08,4.47-11.23,11.06-18.38,20.14-21.82a29.06,29.06,0,0,1,3.51-1.09,30.47,30.47,0,0,1,7.55-.84c14.15.19,28.12,9.64,37.36,17.54,1.55,1.32,3.23,2.8,5.31,4.67l3,2.74,2.09,1.89c11,9.9,21,18.38,33.55,21.92a31.48,31.48,0,0,0,10.22,1.11,34.55,34.55,0,0,0,20.07-7.72c5.89-4.91,9.1-11.45,9-18.41a45.61,45.61,0,0,0-1.84-11l-.27-1c-1.32-5-2.57-9.73-1.6-14.65a16.52,16.52,0,0,1,2.88-6.64c4.61-6.35,13.26-9.22,21.63-12,1.31-.44,2.61-.87,3.87-1.31a20.43,20.43,0,0,0,7.81-4.76,24.35,24.35,0,0,0,4.5-6.21,36.71,36.71,0,0,0,1.86-4.72c.61-1.77,1.24-3.6,2-5.27,1.46-3.26,3-4.85,4.81-5a15.91,15.91,0,0,1,6.14,1.08Z"/><path class="cls-3" d="M671.47,123.71l-1.5-.47c-2.37-.74-4.66-1.67-6.78-2.55l-1.7-.71c-1.83-.78-3.71-1.58-5.58-2.17-.45-.14-.93-.27-1.51-.4-2.45-.58-5.21-1.23-7.72-.65-2.19.52-3.61,3-4.59,5.17-.65,1.39-1.23,2.89-1.79,4.33a36.13,36.13,0,0,1-2.16,4.89,23.48,23.48,0,0,1-4.38,5.54,21.45,21.45,0,0,1-7.33,4.3c-1,.38-2.1.74-3.17,1.11-8.09,2.8-16.45,5.69-20.82,12a16.44,16.44,0,0,0-2.68,6.48c-.83,4.38.09,8.73,1,12.94.14.68.29,1.36.42,2a37.68,37.68,0,0,1,1,10.15c-.45,6.21-3.79,12-9.41,16.2a33,33,0,0,1-19,6.39,31.21,31.21,0,0,1-9.51-1.3c-11.61-3.51-21.17-11.45-31.58-20.72l-1.61-1.43-3.26-2.9c-1.93-1.71-3.54-3.09-5.06-4.37-12.85-10.76-24.82-16.31-35.59-16.52a29.23,29.23,0,0,0-7.22.74,30.15,30.15,0,0,0-3.36,1c-8.7,3.22-15,10-19.28,20.76-3.73,9.4-5.74,20.24-7.87,31.73-.21,1.1-.41,2.21-.62,3.31C445,239,440.67,262,424.14,272.79c-14.73,9.63-34.07,6.29-49.61,3.62-6.79-1.18-12.73-2.17-18.17-3-13.15-2.07-24.69-3.6-35.28-4.65-6.26-.63-12.57-1.15-19.29-1.62a159.94,159.94,0,0,1-17.44-2.53c-3.2-.58-6.5-1.18-9.76-1.67-2.49-.37-5-.72-7.49-1-1.52-.19-2.78-.34-4-.47-3.55-.38-6.71-.64-9.65-.79-5.17-.26-10.33-.29-14.88-.32-9.95-.06-21.5.05-32.7,2.07-1.05.18-2.07.38-3,.58a93.49,93.49,0,0,0-11.73,3.14,77.45,77.45,0,0,0-35.24,25.31,63.65,63.65,0,0,0-6.69,10.89,37.5,37.5,0,0,0-3,11.24,20.62,20.62,0,0,0-.21,3.33,27.44,27.44,0,0,0,1.78,8.49c.44,1.32,1,2.8,1.75,4.52s1.52,3.29,2.29,4.84c.47.93.91,1.81,1.3,2.65a60.63,60.63,0,0,0,4,6.83c2.91,4.53,5.92,9.21,6.28,14.53a21.49,21.49,0,0,1-1.45,7.76,61.72,61.72,0,0,1-3.17,7.5c-4.51,9.08-11.11,16.85-20.18,23.74a86.27,86.27,0,0,1-18.38,10.56,116.86,116.86,0,0,1-20,6.44,140.77,140.77,0,0,1-20,3.13c-2.07.17-4.19.3-6.29.4a197.68,197.68,0,0,1-50-4.5c-7.25-1.53-15-3.54-23.86-6.19V408c8.84,2.64,16.56,4.64,23.79,6.18a198.69,198.69,0,0,0,50.07,4.5c2.1-.1,4.22-.23,6.3-.39a143.64,143.64,0,0,0,20.1-3.15,117.78,117.78,0,0,0,20-6.45,86.54,86.54,0,0,0,18.45-10.61c9.12-6.93,15.75-14.73,20.29-23.86a61.11,61.11,0,0,0,3.19-7.56,21.89,21.89,0,0,0,1.47-7.92c-.36-5.42-3.4-10.15-6.34-14.71a61.65,61.65,0,0,1-4-6.79c-.39-.85-.83-1.73-1.3-2.66-.77-1.54-1.57-3.14-2.28-4.82s-1.3-3.18-1.73-4.49a26.92,26.92,0,0,1-1.77-8.36,20.37,20.37,0,0,1,.21-3.31,37.46,37.46,0,0,1,3-11.09,63.4,63.4,0,0,1,6.65-10.81,77,77,0,0,1,35.07-25.19,93.59,93.59,0,0,1,11.63-3.22l3-.58c11.17-2,22.7-2.11,32.64-2,4.55,0,9.7,0,14.87.32,2.93.14,6.08.4,9.63.78l4,.47c2.48.32,5,.67,7.48,1,3.26.49,6.56,1.09,9.75,1.67a161,161,0,0,0,17.48,2.53c6.71.47,13,1,19.28,1.62,10.58,1.05,22.11,2.58,35.26,4.65,5.44.87,11.37,1.86,18.16,3,15.6,2.69,35,6,49.86-3.67,16.67-10.9,21-34,24.86-54.38.2-1.1.41-2.21.61-3.31,2.13-11.47,4.14-22.3,7.85-31.66,4.3-10.79,10.36-17.32,19.07-20.55a28.49,28.49,0,0,1,10.47-1.71c10.7.21,22.6,5.74,35.38,16.44,1.53,1.28,3.13,2.66,5.05,4.36l3.27,2.9,1.6,1.44c10.45,9.29,20.07,17.27,31.71,20.79a32.22,32.22,0,0,0,9.61,1.31,33.21,33.21,0,0,0,19.15-6.46c5.71-4.3,9.11-10.15,9.56-16.48a38.49,38.49,0,0,0-1-10.26c-.14-.68-.28-1.36-.43-2-.89-4.17-1.8-8.49-1-12.78a16.41,16.41,0,0,1,2.62-6.33c4.31-6.26,12.61-9.13,20.64-11.9l3.18-1.11a22.1,22.1,0,0,0,7.44-4.37,23.42,23.42,0,0,0,4.46-5.64,36.81,36.81,0,0,0,2.17-4.94c.55-1.44,1.13-2.93,1.77-4.31,1.42-3.06,2.76-4.59,4.36-5,2.43-.57,5.15.07,7.6.65.54.12,1,.25,1.45.39,1.85.59,3.73,1.38,5.55,2.15l1.7.72c2.14.88,4.42,1.81,6.81,2.56.55.18,1.09.34,1.6.49Z"/><path class="cls-3" d="M669.38,18.46l1.56.83a6.3,6.3,0,0,1,.53.37v-.45c-.12-.09-.24-.18-.37-.26l-1.57-.84c-5-2.66-10.27-5.42-11.83-15.74-.11-.74-.19-1.52-.26-2.33h-.36c.07.83.16,1.63.27,2.39C658.94,13,664.48,15.87,669.38,18.46Z"/><path class="cls-3" d="M671.47,122.13A60.75,60.75,0,0,1,655.55,121c-1.7-.33-3.54-.78-5.78-1.41s-4.35-1.39-6.45-2.14l-1.51-.54a43,43,0,0,0-5.44-1.73,9.35,9.35,0,0,0-1.39-.22,14.14,14.14,0,0,0-6.92.59c-1.83.78-3.09,3-4.08,5.1-.51,1.07-1,2.18-1.46,3.26a36.4,36.4,0,0,1-2.55,5.21,21.82,21.82,0,0,1-4.34,5,23.77,23.77,0,0,1-7,3.92c-.8.3-1.61.59-2.43.88-7.77,2.81-15.8,5.71-19.88,12A16.51,16.51,0,0,0,583.9,157c-.68,3.76-.07,7.5.51,11.12.16,1,.33,2,.46,3a30.86,30.86,0,0,1,.06,9.4C582.82,193.12,569.06,200.3,557,200a31.69,31.69,0,0,1-8.91-1.5c-.44-.14-.89-.29-1.33-.45-10.17-3.64-18.91-10.83-28.41-19.14l-1.26-1.1-3.36-2.93c-1.76-1.53-3.33-2.86-4.8-4.06-12.2-10-23.5-15.16-33.6-15.43a28.3,28.3,0,0,0-6.81.65,26.89,26.89,0,0,0-3.18.92c-8.33,3-14.11,9.17-18.21,19.48-3.36,8.49-5.34,18.12-7.43,28.31-.31,1.52-.63,3.05-.94,4.58-4,18.89-8.47,40.31-24.39,50.3-14.14,8.88-32.28,6-48.29,3.38-6.68-1.08-12.26-1.93-17.56-2.67-12.74-1.77-23.95-2.88-34.28-3.38-6.14-.3-12.25-.44-18.68-.44-5.48,0-11-1-16.87-2-3.12-.55-6.34-1.12-9.53-1.52-2.45-.31-4.9-.58-7.28-.8-1.44-.12-2.7-.22-3.85-.29-3.4-.21-6.46-.28-9.35-.21-3.91.09-7.58.35-11.47.63l-2.83.2-1.67.11c-9.72.66-19.77,1.34-29.8,3.57-1,.21-2,.44-2.93.68a91.55,91.55,0,0,0-11.2,3.54,80,80,0,0,0-33.95,25,65,65,0,0,0-6.64,10.45,27.52,27.52,0,0,0-2.49,9.76,10.37,10.37,0,0,1-.17,1.43,17.54,17.54,0,0,0-.06,3.24,36.39,36.39,0,0,0,1.06,6.13c.16.69.32,1.39.48,2.11.31,1.48.65,3,1,4.45.4,1.71.9,3.36,1.37,5,.26.86.51,1.69.72,2.47a59.92,59.92,0,0,0,2.48,6.75c1.87,4.52,3.79,9.19,3.41,14.22a23.84,23.84,0,0,1-2.13,7.19,48.54,48.54,0,0,1-3.69,6.75c-5.1,7.75-12.17,14.07-21.63,19.35a83.1,83.1,0,0,1-18,7.24,142.73,142.73,0,0,1-19.21,4c-7.13,1-13.41,1.66-19.21,2q-3,.15-6,.24a232.26,232.26,0,0,1-47.82-3.61c-5.67-1-11.54-2.29-18.13-3.93v.3c6.56,1.64,12.42,2.9,18.07,3.91a232.24,232.24,0,0,0,47.89,3.62q3-.09,6-.24c5.81-.3,12.1-.94,19.24-2a145.2,145.2,0,0,0,19.25-4A83.63,83.63,0,0,0,128.71,385c9.51-5.3,16.63-11.67,21.75-19.47a47.32,47.32,0,0,0,3.73-6.81,23.75,23.75,0,0,0,2.16-7.32c.39-5.13-1.55-9.85-3.44-14.41a61,61,0,0,1-2.46-6.7c-.22-.78-.46-1.62-.72-2.48-.48-1.59-1-3.24-1.37-4.93-.35-1.48-.69-3-1-4.44-.15-.73-.32-1.43-.47-2.12a36.61,36.61,0,0,1-1.06-6.06,16.69,16.69,0,0,1,.06-3.16c.06-.47.12-.95.17-1.44a27.26,27.26,0,0,1,2.45-9.63,64,64,0,0,1,6.6-10.39,79.67,79.67,0,0,1,33.8-24.88,92.66,92.66,0,0,1,11.16-3.53l2.92-.68c10-2.22,20-2.9,29.75-3.56l1.67-.11,2.83-.2c3.89-.28,7.56-.54,11.46-.63,2.88-.07,5.93,0,9.32.21,1.15.07,2.41.17,3.84.29,2.37.22,4.82.49,7.27.8,3.18.4,6.4,1,9.51,1.52a99,99,0,0,0,16.93,2c6.42,0,12.53.14,18.67.44,10.31.5,21.52,1.61,34.24,3.37,5.3.75,10.88,1.6,17.56,2.68,16.1,2.64,34.26,5.55,48.51-3.36,16-10.07,20.57-31.57,24.55-50.55.32-1.52.63-3,.94-4.58,2.09-10.17,4.06-19.78,7.42-28.24,4.05-10.2,9.77-16.32,18-19.27a26.77,26.77,0,0,1,3.14-.91,27.69,27.69,0,0,1,6.73-.64c10,.27,21.26,5.44,33.4,15.35,1.46,1.2,3,2.53,4.79,4l3.36,2.93,1.26,1.11c9.94,8.69,19.06,16.18,29.86,19.66a32,32,0,0,0,27.23-3.68c5.54-3.69,9.12-8.86,10.07-14.55a31.08,31.08,0,0,0,0-9.53c-.14-1-.3-2-.46-3-.58-3.59-1.18-7.3-.51-11a16.23,16.23,0,0,1,2.35-6c4-6.18,12-9.06,19.71-11.84l2.44-.89a23.79,23.79,0,0,0,7.07-4,22,22,0,0,0,4.41-5.06A36.77,36.77,0,0,0,622.9,124c.46-1.07.94-2.19,1.45-3.24,1-2,2.18-4.19,3.9-4.92a13.74,13.74,0,0,1,6.76-.57,10.51,10.51,0,0,1,1.35.21,42.37,42.37,0,0,1,5.4,1.72l1.51.55c2.11.75,4.29,1.52,6.47,2.14s4.1,1.08,5.81,1.42a61.39,61.39,0,0,0,16,1.18Z"/><path class="cls-3" d="M649.14,12c.37.29.75.57,1.11.86a4,4,0,0,1,.73.85l.22.3.55.76,1,1.4a86.28,86.28,0,0,0,8.64,9.19c1.8,1.69,3.8,3.25,5.91,4.91L669,31.56l2.43,2v-.47l-2.22-1.79L667.51,30c-2.11-1.65-4.1-3.21-5.89-4.89a84.57,84.57,0,0,1-8.6-9.15,15.83,15.83,0,0,1-1-1.38c-.19-.27-.37-.52-.56-.77l-.21-.29a4.19,4.19,0,0,0-.8-.93l-1.12-.86c-3.07-2.35-6.47-5-8.45-11.57h-.37C642.5,6.85,646,9.51,649.14,12Z"/><path class="cls-3" d="M671.47,99.42a1.09,1.09,0,0,1-.13.17l-.77,1c-4.92,6.66-8.81,11.91-14.51,15.54-6.19,1.75-12.88,2-21,.77-2-.3-4-.76-5.44-1.12-1.64-.4-3.29-.89-4.89-1.35l-1.25-.36-1.35-.41a31.63,31.63,0,0,0-5.25-1.27,9.55,9.55,0,0,0-1.31,0,11.85,11.85,0,0,0-6.09,1.85c-1.53,1-2.65,3.13-3.58,5-.31.64-.62,1.28-.92,1.92a37.09,37.09,0,0,1-3.17,5.8,20.17,20.17,0,0,1-4.29,4.41,28.15,28.15,0,0,1-6.62,3.55l-1.63.61c-7.48,2.83-15.22,5.75-19,12a16.47,16.47,0,0,0-2.15,5.84,33.43,33.43,0,0,0,.15,9.37c.14,1.27.29,2.6.37,3.9a25.07,25.07,0,0,1-.83,8.66c-2.88,10-15,17.2-27.53,16.28a32.33,32.33,0,0,1-8.31-1.71l-.4-.14C521.06,186,512,178.24,504.06,171.41l-.7-.6q-1.83-1.58-3.67-3.14c-1.65-1.39-3.13-2.62-4.54-3.74-11.54-9.18-22.18-14-31.61-14.33a25.46,25.46,0,0,0-6.4.55,23.78,23.78,0,0,0-3,.83c-7.83,2.7-13.28,8.49-17.14,18.19-3,7.58-4.9,16-6.92,24.91-.44,1.94-.88,3.89-1.34,5.83-5,21.14-9.9,38-24.07,46.48-13.54,8.12-30.84,5.54-46.11,3.27l-.85-.13c-6.45-1-11.84-1.7-17-2.32a276.21,276.21,0,0,0-33.27-2.1c-6.11,0-11.85.27-18.07.74-5.24.4-10.62-.51-16.31-1.48-3-.51-6.18-1-9.28-1.35-2.53-.27-4.85-.45-7.08-.56-1.29-.07-2.55-.11-3.74-.12a77.31,77.31,0,0,0-9,.37c-3.37.34-6.48.84-9.77,1.36l-4,.61c-1.88.28-3.82.56-5.79.83A209.16,209.16,0,0,0,199.93,250c-1.07.29-2,.54-2.81.79a92.41,92.41,0,0,0-10.72,3.84,84.91,84.91,0,0,0-32.67,24.69,66.88,66.88,0,0,0-6.58,10,21.33,21.33,0,0,0-2.18,9.24,19,19,0,0,1-.15,1.91,13.74,13.74,0,0,0,.09,3.14c.12,1.09.33,2.19.56,3.35a45.82,45.82,0,0,1,.72,4.65c.12,1.25.19,2.67.27,4.17v.2c.09,1.76.25,3.52.41,5.22.07.75.14,1.47.19,2.15a59.89,59.89,0,0,0,1,6.47c.82,4.58,1.67,9.31.55,14.1a26.65,26.65,0,0,1-2.81,6.62,39.25,39.25,0,0,1-4.22,6c-5.7,6.63-13,11.38-23.07,14.95a84.51,84.51,0,0,1-17.77,4c-5.38.7-11.42,1.21-18.46,1.57l-2,.1c-5.34.27-10.85.56-16.37.67-1.91,0-3.83.07-5.74.09a295.45,295.45,0,0,1-45.66-2.73c-3.93-.56-8-1.26-12.4-2.11v.39c4.37.85,8.43,1.54,12.35,2.1a295.71,295.71,0,0,0,45.68,2.83c1.92,0,3.83,0,5.75-.09,5.52-.11,11-.39,16.37-.67l2-.1c7-.36,13.09-.87,18.48-1.57a85.28,85.28,0,0,0,17.84-4c10.1-3.6,17.47-8.38,23.22-15.06a39.9,39.9,0,0,0,4.26-6.07,27,27,0,0,0,2.85-6.73c1.14-4.87.28-9.64-.55-14.26-.38-2.12-.77-4.31-1-6.43,0-.69-.12-1.41-.19-2.16-.16-1.69-.32-3.45-.41-5.2v-.2c-.08-1.51-.15-2.93-.26-4.19-.16-1.71-.46-3.23-.74-4.69-.22-1.15-.43-2.24-.55-3.32a13,13,0,0,1-.09-3.05c.06-.62.1-1.25.15-1.92a20.88,20.88,0,0,1,2.14-9.08,65.87,65.87,0,0,1,6.54-10A84.32,84.32,0,0,1,186.53,255a91.8,91.8,0,0,1,10.68-3.84l2.81-.78A210.63,210.63,0,0,1,224.44,246l5.79-.83,4-.61c3.29-.53,6.39-1,9.75-1.36a77.31,77.31,0,0,1,9-.37c1.18,0,2.43.05,3.72.12,2.23.11,4.54.29,7.06.56,3.1.31,6.23.84,9.26,1.35,5.72,1,11.12,1.88,16.4,1.48,6.2-.47,11.94-.71,18-.74a275.42,275.42,0,0,1,33.23,2.1c5.12.62,10.51,1.35,17,2.32l.85.12c15.31,2.29,32.68,4.87,46.32-3.31,14.3-8.57,19.25-25.49,24.25-46.72.45-1.94.9-3.88,1.33-5.82,2-8.9,3.92-17.31,6.91-24.86,3.82-9.59,9.19-15.31,16.92-18a23.74,23.74,0,0,1,3-.82,25.69,25.69,0,0,1,6.31-.54c9.37.33,19.94,5.13,31.42,14.26,1.41,1.12,2.89,2.34,4.54,3.73l3.66,3.14.71.6c8,6.85,17,14.61,27.61,18.39l.4.14a32.6,32.6,0,0,0,8.4,1.72c12.71.93,25-6.33,27.88-16.54a25.69,25.69,0,0,0,.85-8.81c-.08-1.31-.22-2.64-.37-3.92a33.71,33.71,0,0,1-.16-9.25,16.14,16.14,0,0,1,2.1-5.7c3.73-6.13,11.41-9,18.84-11.83l1.62-.61a28,28,0,0,0,6.71-3.6,21.09,21.09,0,0,0,4.37-4.48,37.49,37.49,0,0,0,3.2-5.87c.31-.63.61-1.28.92-1.91.91-1.84,2-3.9,3.46-4.87a11.51,11.51,0,0,1,5.92-1.8,8.69,8.69,0,0,1,1.25,0,30.92,30.92,0,0,1,5.19,1.26l1.36.41,1.25.36c1.6.47,3.26,1,4.9,1.35,1.48.37,3.45.82,5.48,1.13,8.21,1.23,15,1,21.19-.79h0c5.76-3.66,9.67-9,14.62-15.64l.63-.85Z"/><path class="cls-3" d="M646.84,27.61l-1.42-1.24a68.46,68.46,0,0,1-6.67-6.3A48,48,0,0,1,631.62,10c-.31-.63-.56-1.23-.81-1.81-.09-.22-.18-.45-.28-.66l-.12-.29a4,4,0,0,0-.61-1.14l-.66-.79A27,27,0,0,1,625.4,0H625a27.32,27.32,0,0,0,3.88,5.48l.63.74a3.75,3.75,0,0,1,.55,1l.12.3c.1.21.19.43.28.66.25.59.5,1.19.83,1.83a47.74,47.74,0,0,0,7.17,10.26,70.23,70.23,0,0,0,6.7,6.32L646.62,28C651,31.69,655.42,35.57,659,40c4.52,5.64,8.7,14.46,6.89,22.29-1,4.25-2.13,5.81-4.44,8.66-5.26,6.48-12,17.45-14.69,21.86-1,1.7-2,3.29-2.84,4.84-3.21,5.54-5.75,9.93-9.87,13.5-5.65,2-11.86,2.56-19.56,1.8a49,49,0,0,1-5.11-.83c-1.09-.22-2.2-.48-3.27-.72-.84-.2-1.69-.39-2.54-.57l-1.25-.29a23.46,23.46,0,0,0-5-.78,5.75,5.75,0,0,0-1.24.14,10.83,10.83,0,0,0-5.25,3.11,18.68,18.68,0,0,0-2.86,4.52l-.21.42a39,39,0,0,1-4.17,7,19.37,19.37,0,0,1-4.25,3.83,35.81,35.81,0,0,1-6.27,3.17l-.74.3c-7.24,2.85-14.72,5.8-18.22,12a16.61,16.61,0,0,0-1.89,5.51,35.21,35.21,0,0,0-.08,7.68c.1,1.55.2,3.16.16,4.74a20.76,20.76,0,0,1-1.72,7.92c-3.86,8.81-15.77,14.57-27.11,13.13a34.66,34.66,0,0,1-7.71-1.91c-9.72-3.64-18-10.6-26.07-17.34l-.3-.25-3.83-3.19c-1.52-1.26-2.92-2.38-4.28-3.43-10.88-8.39-20.85-12.85-29.63-13.24a25.14,25.14,0,0,0-6,.45,25.44,25.44,0,0,0-2.82.74c-7.33,2.43-12.44,7.81-16.06,16.92-2.62,6.63-4.52,14.19-6.34,21.49-.59,2.33-1.19,4.73-1.81,7.09-5,18.76-10.17,34.91-23.76,42.65-13,7.38-28.63,5.23-43.79,3.16l-1.84-.25c-6.14-.84-11.49-1.48-16.37-2a204.58,204.58,0,0,0-32.27-.82c-6,.37-11.53,1-17.46,1.92-5,.79-10.22-.06-15.75-.95-2.95-.48-6-1-9-1.2-2.41-.19-4.72-.3-6.87-.32-1.24,0-2.46,0-3.63.06a59.67,59.67,0,0,0-8.74,1c-3.07.58-5.86,1.29-8.82,2-1.39.36-2.83.72-4.31,1.08-2.87.68-5.85,1.31-9,2-6.54,1.39-13.3,2.82-20,4.94-.88.27-1.79.57-2.7.88a96.84,96.84,0,0,0-10.25,4.16,91.15,91.15,0,0,0-31.38,24.37,67.18,67.18,0,0,0-6.52,9.59,17.68,17.68,0,0,0-1.94,9,19.39,19.39,0,0,1-.07,2.06,12.09,12.09,0,0,0,.25,3c.1.56.21,1.11.33,1.67a23.58,23.58,0,0,1,.7,6.09q-.12,2.16-.45,4.29c-.33,2.34-.6,4.78-.85,6.93v.39c-.22,1.92-.33,3.91-.43,5.83-.27,4.76-.54,9.68-2.45,14.34a30.87,30.87,0,0,1-3.49,6,33,33,0,0,1-4.75,5.27c-6.26,5.58-14,8.93-24.51,10.56a90.22,90.22,0,0,1-17.46.76c-3.65-.12-7.42-.32-11.41-.54l-6.3-.32c-5.15-.25-10.55-.33-15.76-.39H55.82l-5.46-.06c-15.61-.15-29.66-.39-43.5-1.85-2.23-.23-4.46-.5-6.67-.79v.38c2.2.29,4.41.57,6.63.79,13.87,1.46,27.92,1.71,43.53,1.86l5.47.05h1.74c5.22.07,10.61.14,15.76.39l6.29.32c4,.22,7.77.42,11.42.54a90,90,0,0,0,17.52-.76c10.53-1.64,18.38-5,24.69-10.64a33.67,33.67,0,0,0,4.79-5.33,30.16,30.16,0,0,0,3.54-6.13c1.94-4.73,2.21-9.69,2.48-14.48.1-1.91.21-3.9.43-5.81V316c.25-2.15.52-4.59.85-6.93.22-1.57.41-3.08.46-4.33a24.29,24.29,0,0,0-.72-6.18c-.11-.56-.23-1.11-.33-1.66a12.09,12.09,0,0,1-.24-2.94c0-.65.06-1.35.07-2.08a17.09,17.09,0,0,1,1.89-8.85,67,67,0,0,1,6.48-9.54,90.88,90.88,0,0,1,31.2-24.24,94.22,94.22,0,0,1,10.22-4.15c.9-.31,1.81-.6,2.69-.88,6.7-2.11,13.45-3.54,20-4.92,3.15-.67,6.14-1.3,9-2,1.48-.35,2.92-.72,4.31-1.08,3-.75,5.75-1.46,8.8-2a59,59,0,0,1,8.7-.94c1.16,0,2.38-.07,3.61-.06,2.14,0,4.44.13,6.84.32,3,.22,6.07.72,9,1.2,5.55.89,10.8,1.75,15.85,1,5.92-.94,11.46-1.55,17.43-1.92a205.15,205.15,0,0,1,32.22.82c4.87.49,10.22,1.13,16.36,2l1.83.25c15.22,2.08,30.95,4.24,44-3.2,13.72-7.81,19-24,23.94-42.88.62-2.36,1.22-4.77,1.81-7.1,1.9-7.63,3.71-14.83,6.32-21.44,3.58-9,8.62-14.31,15.85-16.7a22.29,22.29,0,0,1,2.78-.73,24.32,24.32,0,0,1,5.9-.45c8.7.39,18.61,4.82,29.43,13.17,1.36,1,2.76,2.17,4.28,3.42l3.82,3.19.3.25c8.06,6.76,16.4,13.74,26.17,17.4a34.83,34.83,0,0,0,7.79,1.93c11.48,1.46,23.55-4.4,27.47-13.34a21,21,0,0,0,1.75-8.08c0-1.6-.06-3.22-.16-4.78a34.31,34.31,0,0,1,.08-7.58,16.05,16.05,0,0,1,1.84-5.38c3.44-6.11,10.86-9,18-11.87l.74-.29a35.14,35.14,0,0,0,6.33-3.2,19.65,19.65,0,0,0,4.33-3.91,38.87,38.87,0,0,0,4.22-7l.21-.41a19,19,0,0,1,2.79-4.44,10.43,10.43,0,0,1,5.09-3,5,5,0,0,1,1.16-.14,22.91,22.91,0,0,1,4.94.78l1.25.28,2.53.57c1.08.25,2.19.5,3.29.73a49.55,49.55,0,0,0,5.14.83c7.76.77,14,.19,19.73-1.83h.06c4.17-3.62,6.73-8,10-13.62.89-1.54,1.81-3.13,2.84-4.83,2.66-4.41,9.41-15.35,14.65-21.81,2.35-2.91,3.53-4.49,4.53-8.83,1.83-8-2.4-16.92-7-22.63C655.67,35.26,651.14,31.37,646.84,27.61Z"/><path class="cls-3" d="M624.92,24.6c-.93-.86-1.84-1.72-2.74-2.57a54.24,54.24,0,0,1-6.34-6.87A33.73,33.73,0,0,1,610.2,4c-.22-.81-.37-1.55-.5-2.28l-.14-.7c-.06-.32-.14-.63-.23-.94H609a8.68,8.68,0,0,1,.27,1l.13.7c.14.73.28,1.49.51,2.31a34.12,34.12,0,0,0,5.7,11.32A54.46,54.46,0,0,0,622,22.29c.89.85,1.81,1.71,2.74,2.57a95,95,0,0,1,10.08,10.38C639,40.6,643.19,49.47,641,56.82c-1.15,3.92-2.27,5.06-4.51,7.33l-.43.44C631.38,69.36,625.53,79,622.18,86c-1.28,2.69-2.3,5.11-3.28,7.45-2,4.85-3.78,9-6.86,12.66-5.11,2.22-10.86,3.12-18.08,2.82a44.89,44.89,0,0,1-4.77-.53l-1.92-.32c-1.16-.19-2.36-.4-3.57-.56l-1.18-.17a17.59,17.59,0,0,0-4.75-.29,4.66,4.66,0,0,0-1.16.33c-1.47.65-2.91,2.07-4.4,4.36a30.87,30.87,0,0,0-1.76,3.25c-.28.57-.55,1.11-.81,1.6a27.85,27.85,0,0,1-4.25,6.22,17.94,17.94,0,0,1-4.2,3.26,54.35,54.35,0,0,1-5.93,2.8c-6.59,2.71-14.07,5.79-17.28,12a16.6,16.6,0,0,0-1.62,5.19,38.34,38.34,0,0,0-.21,6.06,38.7,38.7,0,0,1-.16,5.49,17,17,0,0,1-2.6,7.19c-4.88,7.65-16.36,12-26.7,10a37.6,37.6,0,0,1-7.12-2.12c-8.71-3.54-16.45-9.86-23.93-16l-.3-.25-3.88-3.14c-1.41-1.14-2.73-2.16-4-3.12-10.22-7.61-19.52-11.69-27.64-12.14a23.14,23.14,0,0,0-5.57.35,23.48,23.48,0,0,0-2.63.65c-6.85,2.14-11.61,7.11-15,15.64a185.87,185.87,0,0,0-5.66,18c-.76,2.76-1.54,5.6-2.37,8.38-5.13,17.2-10.45,31.9-23.45,39-12.42,6.63-27.26,4.79-41.6,3l-2.7-.34c-6-.73-11-1.24-15.77-1.6a158.73,158.73,0,0,0-31.28.45,137.4,137.4,0,0,0-16.84,3.1c-4.77,1.17-9.83.39-15.18-.43a84.21,84.21,0,0,0-8.81-1c-2.28-.12-4.52-.14-6.66-.07-1.18,0-2.36.11-3.52.22a48.26,48.26,0,0,0-8.43,1.53c-2.88.82-5.45,1.75-8.18,2.73-1.41.51-2.86,1-4.37,1.54-3.52,1.2-7.33,2.28-11.36,3.42-5.37,1.53-10.93,3.1-16.43,5.12l-2.59,1a101,101,0,0,0-39.87,28.53,68.26,68.26,0,0,0-6.47,9.17,14.9,14.9,0,0,0-1.71,9,20.18,20.18,0,0,1,0,2.06,10.15,10.15,0,0,0,.4,3c.07.28.14.56.22.85a14.56,14.56,0,0,1,.57,6.65,32.47,32.47,0,0,1-1.18,4.21c-.22.64-.43,1.3-.65,2-.61,1.82-1.24,3.71-1.74,5.3s-.89,3-1.31,4.42c-1.5,5.21-3.06,10.59-6,15.36a34.15,34.15,0,0,1-4.17,5.48,30.82,30.82,0,0,1-5.27,4.54c-6.91,4.67-15.16,6.63-26,6.17a104.16,104.16,0,0,1-17.1-2.67L80,342.5c-5-1.06-10.09-2.15-15.76-3.05a160.25,160.25,0,0,0-16.66-1.6c-1.65-.09-3.35-.16-5.2-.21-5.45-.17-11-.23-16.39-.29-8.26-.09-16.8-.18-25-.68l-.93-.07V337L1,337c8.16.5,16.71.59,25,.68,5.37.06,10.93.12,16.38.29,1.85.06,3.54.12,5.19.21a159.18,159.18,0,0,1,16.6,1.64c5.66.9,10.79,2,15.74,3l1.2.26a105.18,105.18,0,0,0,17.21,2.51c10.87.47,19.19-1.51,26.16-6.23a30.7,30.7,0,0,0,5.33-4.59,35.45,35.45,0,0,0,4.22-5.53c2.92-4.82,4.49-10.23,6-15.47.42-1.45.85-2.95,1.31-4.4.5-1.6,1.12-3.48,1.73-5.3l.65-2a31.41,31.41,0,0,0,1.19-4.27,15.06,15.06,0,0,0-.57-6.83c-.08-.28-.15-.57-.22-.84a9.41,9.41,0,0,1-.39-2.84v-2.1a14.66,14.66,0,0,1,1.66-8.76,68,68,0,0,1,6.43-9.11,100.27,100.27,0,0,1,39.74-28.45l2.58-1c5.49-2,11-3.6,16.41-5.12,4-1.15,7.85-2.23,11.37-3.42,1.52-.51,3-1,4.38-1.55,2.72-1,5.29-1.9,8.16-2.72a48.51,48.51,0,0,1,8.37-1.52c1.15-.1,2.33-.18,3.5-.22,2.13-.07,4.36,0,6.63.07a86.4,86.4,0,0,1,8.78,1c5.39.83,10.48,1.62,15.31.43a136.74,136.74,0,0,1,16.8-3.09,158,158,0,0,1,31.21-.45c4.76.36,9.76.87,15.76,1.6l2.7.34c14.39,1.79,29.28,3.65,41.79-3h0c13.19-7.11,18.5-21.89,23.63-39,.83-2.78,1.62-5.63,2.38-8.39a183,183,0,0,1,5.64-18c3.35-8.41,8-13.31,14.78-15.42a23.35,23.35,0,0,1,2.59-.65,23,23,0,0,1,5.5-.34c8,.44,17.28,4.51,27.45,12.07,1.29,1,2.6,2,4,3.11l3.87,3.15.3.25c7.5,6.11,15.25,12.44,24,16a38.22,38.22,0,0,0,7.18,2.13c10.46,2,22.09-2.36,27-10.13a17.52,17.52,0,0,0,2.66-7.36,39.54,39.54,0,0,0,.16-5.55,37.59,37.59,0,0,1,.21-6,16.12,16.12,0,0,1,1.58-5.06c3.15-6.13,10.56-9.18,17.1-11.87a52.89,52.89,0,0,0,6-2.82,18.68,18.68,0,0,0,4.29-3.32,28.27,28.27,0,0,0,4.3-6.31c.27-.5.54-1,.82-1.61a33.17,33.17,0,0,1,1.74-3.21c1.44-2.22,2.83-3.61,4.25-4.23a3.89,3.89,0,0,1,1.06-.3,16.56,16.56,0,0,1,4.66.29l1.19.17c1.2.16,2.4.36,3.56.56l1.92.31a43.15,43.15,0,0,0,4.81.54c7.29.3,13.09-.61,18.26-2.86h.06c3.14-3.68,4.91-7.9,7-12.79,1-2.34,2-4.75,3.27-7.43,3.34-7,9.16-16.56,13.84-21.31l.43-.43c2.21-2.24,3.43-3.47,4.61-7.49,2.2-7.5-2-16.51-6.33-22A97.82,97.82,0,0,0,624.92,24.6Z"/><path class="cls-3" d="M602.68,21.52c-3.79-3.76-7.37-7.32-9.75-11.28A28.23,28.23,0,0,1,589,0h-.35a28.32,28.32,0,0,0,4,10.41c2.4,4,6,7.57,9.8,11.35a94.29,94.29,0,0,1,8.1,8.74c3.35,4.3,8.3,13.53,5.63,20.88a11,11,0,0,1-4.4,6l-1,.84c-4.93,4.07-10.65,14-13.12,21-1.23,3.43-2.08,6.58-2.84,9.37-1.27,4.68-2.37,8.72-4.73,12.49-4.58,2.47-9.86,3.69-16.6,3.85a42.8,42.8,0,0,1-5.43-.35c-1.34-.14-2.74-.29-4.18-.34l-1.09-.07a14.17,14.17,0,0,0-4.5.21c-2.43.67-3.9,4.3-5.19,7.5a30.17,30.17,0,0,1-1.51,3.39,18.41,18.41,0,0,1-8.49,8.17c-1.32.6-2.67,1.18-4.1,1.79-7,3-14.15,6-17.08,12.4-1.49,3.23-1.55,6.36-1.6,9.39a29,29,0,0,1-.56,6.16,14.58,14.58,0,0,1-3.48,6.45c-5.88,6.43-16.94,9.3-26.3,6.83-10.43-2.76-19.3-9.79-27.89-16.6l-1-.81c-1.21-1-2.41-1.91-3.62-2.84-11.33-8.77-21-13.3-29.51-13.88a22.29,22.29,0,0,0-5.16.25c-7.65,1.33-12.86,6.07-16.38,14.92-1.83,4.65-3.36,9.69-4.85,14.57-1,3.2-2,6.5-3.06,9.7-5.06,14.86-10.63,28.72-23.14,35-11.81,5.93-25.76,4.36-39.25,2.84l-3.72-.41c-5.69-.61-10.66-1-15.18-1.25A130.63,130.63,0,0,0,287,209.72,112.39,112.39,0,0,0,270.72,214c-4.53,1.56-9.43.85-14.62.09a66.73,66.73,0,0,0-8.57-.88c-2.22,0-4.39,0-6.45.17A41.52,41.52,0,0,0,229.54,216c-2.79,1.08-5.26,2.25-7.87,3.5-1.31.62-2.67,1.27-4.09,1.91-4,1.77-8.42,3.37-13.15,5.07-4.39,1.57-8.93,3.2-13.41,5.09-.83.35-1.67.71-2.48,1.08a112.8,112.8,0,0,0-38.11,28.52,69.54,69.54,0,0,0-6.41,8.74,13,13,0,0,0-1.5,9,16.67,16.67,0,0,1,.15,2,9.62,9.62,0,0,0,.72,3.35,9.75,9.75,0,0,1,.38,6.77,27.63,27.63,0,0,1-1.9,4.14c-.58,1.09-1.21,2.26-1.83,3.38-.74,1.37-1.45,2.66-2,3.83l-.57,1.11c-4.18,8.14-8.92,17.37-15.94,23.18-8.55,7.06-19.42,8.89-33.21,5.58a120.92,120.92,0,0,1-16.85-5.78,146.94,146.94,0,0,0-16.2-5.74,97,97,0,0,0-20.74-3.15c-8.15-.45-16.45-.32-24.48-.19-3.27.05-6.59.09-9.9.1v.38c3.31,0,6.64-.05,9.91-.1,8-.13,16.31-.26,24.45.19a96.35,96.35,0,0,1,20.68,3,144.38,144.38,0,0,1,16.17,5.73,121.16,121.16,0,0,0,16.9,5.79c13.9,3.34,24.85,1.49,33.49-5.65,7.08-5.85,11.84-15.12,16-23.3l.57-1.11c.6-1.16,1.3-2.45,2-3.82.61-1.12,1.25-2.29,1.82-3.38A28.61,28.61,0,0,0,144,291a10.22,10.22,0,0,0-.39-7,9.58,9.58,0,0,1-.7-3.21,16.67,16.67,0,0,0-.15-2c-.28-2.37-.62-5.32,1.44-8.76a67.83,67.83,0,0,1,6.38-8.69,112.23,112.23,0,0,1,38-28.43c.81-.37,1.64-.73,2.46-1.07,4.48-1.89,9-3.52,13.4-5.09,4.73-1.7,9.2-3.3,13.17-5.08,1.42-.64,2.79-1.29,4.1-1.91,2.61-1.24,5.07-2.42,7.85-3.49a41.16,41.16,0,0,1,11.44-2.5q3.21-.24,6.42-.17a67.74,67.74,0,0,1,8.53.88c5.23.76,10.17,1.48,14.77-.1a110.23,110.23,0,0,1,16.19-4.27,129.92,129.92,0,0,1,30.19-1.73c4.52.23,9.48.64,15.17,1.25L336,210c13.54,1.53,27.54,3.1,39.43-2.87,12.7-6.35,18.32-20.29,23.4-35.22,1.09-3.21,2.09-6.52,3.07-9.72,1.48-4.87,3-9.9,4.83-14.53,3.47-8.73,8.59-13.4,16.12-14.7a21.61,21.61,0,0,1,5.08-.25c8.43.58,18,5.09,29.23,13.79q1.81,1.4,3.62,2.84l1,.81c8.62,6.83,17.53,13.89,28,16.66,9.47,2.5,20.67-.41,26.63-6.93a14.86,14.86,0,0,0,3.57-6.63,29.8,29.8,0,0,0,.57-6.25,20.89,20.89,0,0,1,1.57-9.22c2.87-6.25,10-9.28,16.88-12.22,1.44-.61,2.79-1.18,4.12-1.79a18.84,18.84,0,0,0,8.65-8.32,30.9,30.9,0,0,0,1.53-3.43c1.26-3.12,2.69-6.66,5-7.29a13.83,13.83,0,0,1,4.4-.2l1.1.07a39.56,39.56,0,0,1,4.16.34,40,40,0,0,0,5.47.35c6.82-.16,12.15-1.4,16.79-3.91h0c2.41-3.84,3.52-7.92,4.81-12.65.75-2.77,1.61-5.92,2.83-9.33,2.45-6.86,8.12-16.76,13-20.8l1-.83a11.29,11.29,0,0,0,4.52-6.19c2.73-7.52-2.29-16.91-5.69-21.27A95.22,95.22,0,0,0,602.68,21.52Z"/><path class="cls-3" d="M585.54,24.36c-1.65-2-3.49-3.95-5.27-5.83a86.5,86.5,0,0,1-6.49-7.43A35.54,35.54,0,0,1,569.14,3a27.49,27.49,0,0,1-1-2.94h-.37a31,31,0,0,0,1.07,3.12,36.39,36.39,0,0,0,4.66,8.21A89.14,89.14,0,0,0,580,18.8c1.77,1.88,3.6,3.82,5.25,5.82a34.53,34.53,0,0,1,2.66,3.69c3.16,5,5.7,12.33,3.38,17.67-1.4,3.2-2.46,3.84-4.38,5-.46.28-1,.6-1.57,1-4.73,3.12-9.39,11.21-11.56,17.58-.41,1.23-.78,2.54-1.15,4.11-.84,3.64-1.29,6.84-1.72,9.93-.64,4.6-1.19,8.58-2.92,12.52-3.79,2.54-8.27,4.06-14.1,4.78a37.17,37.17,0,0,1-4.72.17c-1.18,0-2.41,0-3.68.06h-1a12.68,12.68,0,0,0-3.92.55c-2.16.78-3.53,4.08-4.74,7a28,28,0,0,1-1.52,3.29,18.6,18.6,0,0,1-7.89,7.77c-1.36.68-2.76,1.32-4.24,2-6.23,2.87-12.68,5.83-15.62,11.43a21.31,21.31,0,0,0-2,8.3,26.77,26.77,0,0,1-.94,5.47,13.66,13.66,0,0,1-3.54,5.65,21.29,21.29,0,0,1-6,4,29.16,29.16,0,0,1-18.8,1.72c-10-2.57-18.6-9.12-26.92-15.45l-.46-.35-3.44-2.6c-6.95-5.19-17.38-12.23-27.69-13.36a20.7,20.7,0,0,0-4.72.06c-7.33.9-12.29,5.13-15.6,13.31-1.52,3.76-2.86,7.78-4.15,11.66-1.18,3.53-2.4,7.19-3.77,10.7-4.95,12.77-10.79,25.7-22.84,31.3-11.24,5.22-24.33,3.91-37,2.64l-4.66-.45c-5.5-.51-10.31-.81-14.68-.92a106.8,106.8,0,0,0-29.1,3,96,96,0,0,0-15,5.18,19.09,19.09,0,0,1-3.11,1c-3.64.9-7.53.39-11.65-.14a66.18,66.18,0,0,0-7.31-.67c-1.38,0-2.71,0-4,.08a21.19,21.19,0,0,0-2.29.2,35.6,35.6,0,0,0-11,2.91c-1.62.75-3.21,1.58-4.87,2.54l-3.1,1.84c-.93.56-1.87,1.13-2.85,1.7-2.21,1.28-4.76,2.62-7.82,4.1-2.72,1.31-5.57,2.57-8.6,3.91-2.56,1.14-5.21,2.32-7.84,3.55-.78.37-1.57.74-2.35,1.13-2.57,1.26-5.12,2.63-7.58,4.06a129.33,129.33,0,0,0-29.43,23.42,72.67,72.67,0,0,0-6.54,8,12.73,12.73,0,0,0-2.16,7.85,13.79,13.79,0,0,1-.11,1.93,8,8,0,0,0,.25,3.08,8.4,8.4,0,0,1-.36,5.78,27.93,27.93,0,0,1-2.1,3.58c-.82,1.26-1.73,2.58-2.61,3.85l-1.56,2.28-.84,1.25c-4.66,7-9.49,14.18-16.3,19.45-8.73,6.79-19.32,9.35-31.48,7.61-5-.71-10.37-2.44-17-5.44-1.59-.72-3.23-1.49-4.82-2.23-2.82-1.33-5.75-2.7-8.74-4l-2-.8a93.26,93.26,0,0,0-19.44-5.7c-3-.56-6.19-1-9.31-1.3a130.34,130.34,0,0,0-17-.39c-3.11.1-6.22.25-9.26.4v.38c3-.15,6.16-.3,9.27-.4a134,134,0,0,1,17,.39c3.11.3,6.24.73,9.28,1.29a93.49,93.49,0,0,1,19.38,5.69c.67.28,1.35.56,2,.85,3,1.27,5.91,2.64,8.74,4,1.58.74,3.22,1.51,4.81,2.24,6.66,3,12.08,4.75,17.08,5.46,12.26,1.75,22.93-.84,31.73-7.68,6.86-5.31,11.7-12.54,16.39-19.54l.84-1.25c.47-.7,1-1.47,1.55-2.27.88-1.28,1.79-2.6,2.61-3.86a27.11,27.11,0,0,0,2.14-3.64,8.79,8.79,0,0,0,.38-6,7.63,7.63,0,0,1-.24-2.93,14.81,14.81,0,0,0,.11-2,12.47,12.47,0,0,1,2-7.74,73.75,73.75,0,0,1,6.51-7.93,129.27,129.27,0,0,1,29.39-23.34c2.46-1.42,5-2.79,7.56-4,.79-.39,1.57-.76,2.35-1.13,2.62-1.23,5.28-2.41,7.84-3.54,3-1.34,5.88-2.61,8.61-3.93,3.06-1.47,5.62-2.82,7.84-4.11,1-.57,1.92-1.13,2.85-1.69s2.06-1.24,3.1-1.84a47.86,47.86,0,0,1,4.83-2.53,35.08,35.08,0,0,1,10.82-3c.74-.08,1.51-.15,2.28-.2,1.24-.08,2.56-.1,3.92-.08a65.64,65.64,0,0,1,7.28.67c4.15.53,8.07,1,11.77.13a18.42,18.42,0,0,0,3.16-1,97.47,97.47,0,0,1,14.92-5.16,106,106,0,0,1,29-3c4.37.11,9.16.41,14.66.92l4.66.45c12.7,1.27,25.84,2.59,37.16-2.67,12.17-5.65,18.05-18.67,23-31.51,1.37-3.51,2.59-7.17,3.77-10.71,1.29-3.88,2.63-7.89,4.14-11.64,3.25-8,8.12-12.2,15.32-13.08a20.09,20.09,0,0,1,4.65-.06c10.23,1.13,20.6,8.12,27.52,13.29l3.44,2.6.46.35c8.35,6.35,17,12.92,27,15.51A29.51,29.51,0,0,0,494.14,157a21.68,21.68,0,0,0,6.12-4.12,14.16,14.16,0,0,0,3.63-5.8,26.92,26.92,0,0,0,1-5.56,20.94,20.94,0,0,1,2-8.15c2.88-5.49,9.28-8.43,15.46-11.26,1.42-.65,2.88-1.32,4.24-2a18.82,18.82,0,0,0,8-7.9,31.52,31.52,0,0,0,1.54-3.34c1.18-2.84,2.52-6.06,4.53-6.79a12.37,12.37,0,0,1,3.82-.52h1c1.26-.07,2.48-.06,3.66-.06a37.81,37.81,0,0,0,4.76-.17c5.91-.73,10.45-2.28,14.29-4.87h0v0c1.78-4,2.34-8,3-12.68.43-3.08.87-6.26,1.72-9.88a42.73,42.73,0,0,1,1.23-4.14c2.09-6.16,6.8-14.34,11.41-17.38l1.56-1c1.92-1.16,3.08-1.85,4.53-5.17,2.38-5.48-.2-12.91-3.41-18A34.16,34.16,0,0,0,585.54,24.36Z"/><path class="cls-3" d="M560.27,18.44c-1.19-1.38-2.46-2.75-3.69-4.07-2.94-3.16-6-6.43-8-10a26,26,0,0,1-2-4.36h-.37a26.32,26.32,0,0,0,2.06,4.56c2.06,3.58,5.12,6.87,8.07,10,1.23,1.32,2.5,2.69,3.69,4.06a39.61,39.61,0,0,1,2.87,3.72c3.36,5,6.31,12.74,3.57,18.12-1.49,2.94-2.58,3.39-4.39,4.14-.59.25-1.27.53-2.06.94-5,2.63-10,11.5-11.59,18.14a39.08,39.08,0,0,0-.69,4.29,92.61,92.61,0,0,0-.5,10.4c0,4.39-.07,8.53-1.22,12.62a27.55,27.55,0,0,1-11.6,5.72,33.28,33.28,0,0,1-4.09.7c-1,.13-2,.26-3.1.47l-1,.16a11.66,11.66,0,0,0-3.34.86c-1.89.89-3.16,3.85-4.29,6.46a27.86,27.86,0,0,1-1.53,3.22,18.85,18.85,0,0,1-7.3,7.36c-1.41.77-2.93,1.53-4.4,2.26-5.51,2.73-11.21,5.56-14.14,10.4a21,21,0,0,0-2.46,7.18,24.24,24.24,0,0,1-1.33,4.8,13.25,13.25,0,0,1-3.6,4.85,20.68,20.68,0,0,1-5.7,3.51,29,29,0,0,1-17.61,1.28c-9.61-2.42-17.86-8.41-25.83-14.2l-.61-.45-2.65-1.91c-7.74-5.55-16.87-11.42-26-12.85a19.07,19.07,0,0,0-4.27-.15c-7.09.47-11.67,4.08-14.83,11.7-1.2,2.91-2.31,6-3.39,8.9-1.4,3.83-2.84,7.79-4.53,11.54-4.84,10.79-11,22.71-22.55,27.61-10.67,4.52-22.9,3.45-34.73,2.42-1.84-.16-3.75-.33-5.6-.47-5.33-.4-10-.59-14.19-.58a88.24,88.24,0,0,0-27.92,4.37,81.46,81.46,0,0,0-13.71,6.07,22.49,22.49,0,0,1-2.83,1.28c-3.64,1.42-7.62,1-11.84.46a62.79,62.79,0,0,0-6.28-.52,37.51,37.51,0,0,0-3.82.13c-.74.06-1.49.15-2.22.25a30.52,30.52,0,0,0-10.4,3.32,40.91,40.91,0,0,0-4.44,2.8c-1.26.91-2.45,1.82-3.71,2.78l-1.51,1.15c-2.18,1.66-4.41,3.19-6.81,4.69-3.82,2.4-8.09,4.61-12.62,7l-2.54,1.32-2.23,1.18c-2.52,1.36-5,2.74-7.22,4.11a157.8,157.8,0,0,0-28.69,22.32,87.59,87.59,0,0,0-6.67,7.22,13.27,13.27,0,0,0-2.74,6.66,14,14,0,0,1-.44,1.92,7.07,7.07,0,0,0-.26,2.78,7.6,7.6,0,0,1-1,4.82,28.2,28.2,0,0,1-2,2.7l-.26.31c-1.19,1.44-2.55,2.94-3.75,4.27l-1.54,1.71c-5,5.58-10.19,11.34-16.94,16.2-9.48,6.86-19.5,10.05-29.77,9.59-5.18-.23-10.78-1.9-17.13-5.1-3.46-1.75-7-3.78-10.37-5.74L57,290.29l-.87-.5-1-.59A95.06,95.06,0,0,0,36.87,281a69.09,69.09,0,0,0-9.06-2.3,75.59,75.59,0,0,0-17.13-.92c-3.63.17-7.27.5-10.58.84V279c3.31-.34,7-.67,10.59-.83a74.49,74.49,0,0,1,17.07.91,67.81,67.81,0,0,1,9,2.29,94.52,94.52,0,0,1,18.09,8.22l1,.59.86.5,2.69,1.54c3.41,2,6.92,4,10.4,5.76,6.39,3.22,12,4.9,17.26,5.13,10.38.47,20.47-2.79,30-9.69,6.77-4.88,12-10.66,17-16.25l1.55-1.71c1.2-1.33,2.56-2.84,3.75-4.28l.26-.32a26.33,26.33,0,0,0,2.08-2.74,8,8,0,0,0,1.11-5.05,6.88,6.88,0,0,1,.24-2.63,13.47,13.47,0,0,0,.45-2,13,13,0,0,1,2.64-6.44,83.51,83.51,0,0,1,6.64-7.18,157.11,157.11,0,0,1,28.62-22.28c2.26-1.37,4.69-2.75,7.21-4.1l2.23-1.18,2.53-1.32c4.54-2.35,8.82-4.57,12.64-7a77.27,77.27,0,0,0,6.84-4.71l1.51-1.14c1.26-1,2.45-1.87,3.7-2.78a40.35,40.35,0,0,1,4.41-2.78,30.37,30.37,0,0,1,10.29-3.28c.72-.1,1.46-.18,2.19-.25a34.28,34.28,0,0,1,3.79-.12,59.79,59.79,0,0,1,6.26.51c4.25.5,8.27,1,12-.48a23.14,23.14,0,0,0,2.87-1.3,80.77,80.77,0,0,1,13.65-6.05,88.75,88.75,0,0,1,27.82-4.35c4.21,0,8.84.18,14.17.58,1.85.14,3.75.31,5.59.47,11.87,1,24.15,2.11,34.88-2.44,11.71-5,17.88-17,22.75-27.8,1.69-3.76,3.14-7.73,4.54-11.57,1.07-2.94,2.18-6,3.38-8.88,3.11-7.48,7.58-11,14.53-11.48a18.45,18.45,0,0,1,4.2.15c9,1.42,18.11,7.26,25.82,12.79l2.64,1.91.61.44c8,5.82,16.27,11.83,25.95,14.26a29.2,29.2,0,0,0,17.81-1.29,20.76,20.76,0,0,0,5.84-3.5,13.64,13.64,0,0,0,3.7-5,24,24,0,0,0,1.39-4.85,20.5,20.5,0,0,1,2.42-7c2.87-4.75,8.52-7.55,14-10.27,1.48-.73,3-1.49,4.42-2.26a19.16,19.16,0,0,0,7.44-7.5,27.78,27.78,0,0,0,1.55-3.26c1.1-2.55,2.35-5.44,4.11-6.27a11.45,11.45,0,0,1,3.25-.84l1-.16c1.06-.2,2.09-.33,3.08-.46a34.1,34.1,0,0,0,4.14-.71,27.7,27.7,0,0,0,11.77-5.83h0v-.06c1.18-4.16,1.22-8.35,1.26-12.79a91.72,91.72,0,0,1,.49-10.35,35.81,35.81,0,0,1,.68-4.25c1.52-6.56,6.46-15.31,11.4-17.88.65-.34,1.32-.65,2-.93,1.81-.76,3-1.26,4.57-4.31,2.82-5.55-.17-13.45-3.6-18.53A38.8,38.8,0,0,0,560.27,18.44Z"/><path class="cls-3" d="M535,12.51c-.87-1-1.78-1.92-2.66-2.86A56.68,56.68,0,0,1,524.56,0h-.42a55.31,55.31,0,0,0,8,9.91c.87.94,1.78,1.9,2.64,2.86a41,41,0,0,1,3.08,3.76c3.9,5.38,6.74,13.49,3.77,18.57-1.58,2.71-2.72,3-4.45,3.42a17.29,17.29,0,0,0-2.51.77C529.14,41.54,523.93,51,523,58a35.13,35.13,0,0,0-.22,4.47,82.19,82.19,0,0,0,.8,10.74c.52,4.42,1,8.58.4,12.86a24.41,24.41,0,0,1-9.1,6.66A32.5,32.5,0,0,1,511.32,94c-.78.24-1.58.5-2.42.8-.29.11-.61.21-.93.31a11.44,11.44,0,0,0-2.75,1.15c-1.62,1-2.74,3.51-3.83,5.94a33.61,33.61,0,0,1-1.54,3.13,19.85,19.85,0,0,1-6.72,7c-1.48.9-3.1,1.77-4.66,2.61-4.75,2.58-9.67,5.23-12.55,9.29a22.31,22.31,0,0,0-2.84,6,23.67,23.67,0,0,1-1.76,4.19,13.26,13.26,0,0,1-3.66,4.05,20.93,20.93,0,0,1-5.47,2.84,29.8,29.8,0,0,1-16.42.82c-8.56-2.08-16.06-6.93-24.28-12.6l-3.07-2.11c-7.37-5-15.92-10.56-24.24-12.35a18.2,18.2,0,0,0-3.83-.34c-6.73,0-11.06,3.09-14,10.09-.86,2-1.69,4.11-2.49,6.13a132.42,132.42,0,0,1-5.43,12.39c-5.25,10-11.58,19.86-22.26,23.92-10.09,3.83-21.45,3-32.44,2.16-2.16-.16-4.4-.32-6.57-.45-5.14-.3-9.62-.38-13.69-.25a74.53,74.53,0,0,0-26.75,5.68,68.21,68.21,0,0,0-12.44,7c-.82.56-1.68,1-2.51,1.5h-.05c-3.57,2-7.57,1.56-11.81,1.11a52.76,52.76,0,0,0-5.47-.41,28.49,28.49,0,0,0-3.69.17c-.73.08-1.45.19-2.14.31a26.23,26.23,0,0,0-9.84,3.72,31.22,31.22,0,0,0-4,3.07c-1.5,1.36-2.88,2.73-4.35,4.19l-.13.13a74.67,74.67,0,0,1-5.81,5.29,109.41,109.41,0,0,1-13.86,9.08l-2.11,1.23c-2.72,1.6-4.91,2.92-6.87,4.16a216.51,216.51,0,0,0-27.93,21.23c-2.37,2.12-4.81,4.31-6.81,6.46a15.63,15.63,0,0,0-3.22,5.44,13.79,13.79,0,0,1-.87,1.92,7.08,7.08,0,0,0-.81,2.45,7.73,7.73,0,0,1-1.71,3.9,22.78,22.78,0,0,1-2,1.93l-.56.52c-1.53,1.42-3.33,2.87-4.73,4-5.36,4.23-11.3,8.79-18.41,13.55-8.58,5.73-17.9,11.11-28,11.65-5.26.29-11.07-1.32-17.26-4.76a121.62,121.62,0,0,1-12.58-8.38L55.54,274l-.62-.47a101.63,101.63,0,0,0-16.85-10.81,50.48,50.48,0,0,0-8.81-3.29A52.58,52.58,0,0,0,12,258c-3.48.21-7.29.66-11.89,1.4v.39A119.56,119.56,0,0,1,12,258.33a52.23,52.23,0,0,1,17.12,1.44A50.62,50.62,0,0,1,37.89,263a101.64,101.64,0,0,1,16.8,10.77l.62.47,1.13.85a121.8,121.8,0,0,0,12.7,8.4c6.25,3.47,12.12,5.09,17.44,4.81,10.22-.55,19.6-6,28.21-11.72,7.12-4.76,13.07-9.33,18.44-13.56,1.4-1.11,3.21-2.56,4.75-4l.56-.51a27,27,0,0,0,2-2,8.12,8.12,0,0,0,1.8-4.08,6.81,6.81,0,0,1,.76-2.32,14.32,14.32,0,0,0,.89-2,15.2,15.2,0,0,1,3.15-5.32c2-2.14,4.42-4.32,6.78-6.44A214.82,214.82,0,0,1,181.8,215.2c2-1.24,4.15-2.56,6.87-4.15l2.11-1.23a111.25,111.25,0,0,0,13.9-9.12,75.35,75.35,0,0,0,5.84-5.31l.13-.13c1.46-1.46,2.84-2.83,4.34-4.18a30.69,30.69,0,0,1,4-3,26.16,26.16,0,0,1,9.72-3.67c.68-.12,1.39-.23,2.11-.31a27.79,27.79,0,0,1,3.65-.17,52.38,52.38,0,0,1,5.45.41c4.28.46,8.33.9,12-1.15H252c.84-.46,1.71-1,2.53-1.51a67,67,0,0,1,12.39-7,74.29,74.29,0,0,1,26.63-5.66c4.06-.13,8.53,0,13.67.25,2.16.13,4.39.29,6.55.45,11,.83,22.43,1.68,32.58-2.18,10.79-4.1,17.17-14,22.46-24.09a131.12,131.12,0,0,0,5.36-12.43c.8-2,1.63-4.1,2.49-6.12,2.92-6.85,7.16-9.89,13.73-9.87a17.6,17.6,0,0,1,3.76.34c8.27,1.78,16.79,7.27,24.12,12.29l3.07,2.12c8.25,5.68,15.77,10.55,24.4,12.64a30.06,30.06,0,0,0,16.6-.83,20.87,20.87,0,0,0,5.56-2.89,13.6,13.6,0,0,0,3.76-4.16,24.37,24.37,0,0,0,1.79-4.25,21.92,21.92,0,0,1,2.79-5.91c2.83-4,7.71-6.62,12.43-9.17,1.56-.85,3.18-1.73,4.67-2.62a20,20,0,0,0,6.84-7.1,26.61,26.61,0,0,0,1.56-3.17c1.07-2.37,2.17-4.82,3.69-5.77a11.23,11.23,0,0,1,2.68-1.11l.95-.32c.83-.3,1.62-.55,2.39-.79A31.28,31.28,0,0,0,515,93.07a24.57,24.57,0,0,0,9.27-6.8h0c.64-4.35.14-8.57-.39-13a84.88,84.88,0,0,1-.8-10.69,32.49,32.49,0,0,1,.22-4.41c.88-6.74,6-16.23,11.4-18.39A16.27,16.27,0,0,1,537.2,39c1.81-.44,3-.74,4.67-3.59,3.06-5.23.18-13.52-3.79-19A44.48,44.48,0,0,0,535,12.51Z"/><path class="cls-3" d="M509.74,6.58c-.62-.66-1.26-1.32-1.89-2-1.43-1.49-2.88-3-4.22-4.56h-.49c1.41,1.67,2.94,3.26,4.45,4.84.64.66,1.27,1.31,1.9,2,1.34,1.42,2.38,2.63,3.28,3.79,3.45,4.45,7.57,13.55,4,19-1.67,2.54-2.82,2.64-4.56,2.8a13.55,13.55,0,0,0-2.9.5c-6.47,2-11.46,12.87-11.68,19.27a32.72,32.72,0,0,0,.24,4.64,79.07,79.07,0,0,0,2.11,11c1.09,4.5,2.12,8.74,2,13.25a22.61,22.61,0,0,1-6.63,7.59,30.8,30.8,0,0,1-3.29,2.13l-1.49.89c-.29.18-.59.35-.9.52a13.1,13.1,0,0,0-2.15,1.38c-1.33,1.09-2.34,3.25-3.32,5.33a30.57,30.57,0,0,1-1.6,3.12,21.25,21.25,0,0,1-6.13,6.57c-1.61,1.08-3.38,2.13-5.09,3.14-3.95,2.34-8,4.75-10.79,8a26.2,26.2,0,0,0-3.12,4.76,24.28,24.28,0,0,1-2.29,3.65,14.28,14.28,0,0,1-3.72,3.25,21.54,21.54,0,0,1-5.2,2.23,30.77,30.77,0,0,1-15.22.38c-8.27-1.93-15.77-6.49-22.75-11L406,121.54l-.93-.61c-7.18-4.65-14.61-9.47-22.12-11.59a17.63,17.63,0,0,0-3.39-.55c-6.36-.55-10.46,2.07-13.28,8.49-.5,1.13-1,2.28-1.47,3.42a98,98,0,0,1-6.45,13.18c-4.71,7.59-11.47,16.74-22,20.22-9.49,3.15-20,2.51-30.12,1.89-2.49-.16-5.06-.31-7.57-.41a129.16,129.16,0,0,0-13.2.08,64.4,64.4,0,0,0-25.58,7,59.6,59.6,0,0,0-11.17,7.88c-.63.55-1.3,1-1.94,1.53l-.35.26c-3.43,2.61-7.4,2.2-11.6,1.78-1.57-.16-3.19-.33-4.83-.34a23.69,23.69,0,0,0-3.57.22c-.7.1-1.39.22-2,.37a22.92,22.92,0,0,0-9.28,4.12,24.61,24.61,0,0,0-3.59,3.33c-1.38,1.58-2.61,3.2-3.75,4.72a67.73,67.73,0,0,1-4.81,5.88,68.23,68.23,0,0,1-12.57,9.89l-2,1.29-1.36.87c-1.7,1.08-3.45,2.21-5.16,3.34-7.91,5.2-16.8,11.79-27.18,20.12l-1.45,1.16c-2,1.56-3.81,3-5.49,4.55a20.94,20.94,0,0,0-3.51,4.18,15.2,15.2,0,0,1-1.48,2,9.56,9.56,0,0,0-1.39,2.06,9.41,9.41,0,0,1-2.35,3,23.11,23.11,0,0,1-2,1.4l-.73.48a50.77,50.77,0,0,1-5,2.9c-1.71.87-3.39,1.7-5.18,2.57-4.39,2.15-8.94,4.38-13.88,7.4-2.27,1.38-4.43,2.81-6.51,4.19-6.56,4.32-12.75,8.41-19.81,9.49-5.37.82-11.22-.67-17.4-4.43a76.82,76.82,0,0,1-12.1-9.46l-1.15-1.1-1.07-1.22c-4.84-4.7-9.42-9.14-14.83-12.65a40.64,40.64,0,0,0-8.51-4.28h-.12a41,41,0,0,0-17.32-2,90.68,90.68,0,0,0-13.1,2.09H.15v.39H.34a91.37,91.37,0,0,1,13.05-2.08,40.71,40.71,0,0,1,17.18,1.94h.12a40.48,40.48,0,0,1,8.44,4.25c5.38,3.49,10,7.92,14.78,12.61l1.19,1.15,1.15,1.1a77,77,0,0,0,12.15,9.5c6.25,3.8,12.18,5.31,17.62,4.48,7.14-1.1,13.36-5.2,20-9.55,2.08-1.37,4.24-2.8,6.5-4.18,4.93-3,9.47-5.23,13.86-7.38,1.78-.88,3.47-1.7,5.18-2.58a53.74,53.74,0,0,0,5.05-2.91c.24-.17.49-.33.73-.48a23.44,23.44,0,0,0,2-1.43,9.73,9.73,0,0,0,2.43-3.15,9,9,0,0,1,1.34-2,17.27,17.27,0,0,0,1.52-2,20.3,20.3,0,0,1,3.45-4.12c1.66-1.5,3.51-3,5.47-4.53l1.45-1.16c10.38-8.33,19.26-14.91,27.15-20.11,1.71-1.12,3.46-2.25,5.16-3.33l1.35-.87,2-1.29a68.89,68.89,0,0,0,12.63-9.94,68.37,68.37,0,0,0,4.83-5.91c1.14-1.52,2.36-3.13,3.74-4.7a25,25,0,0,1,3.53-3.29,22.61,22.61,0,0,1,9.15-4.06c.65-.14,1.33-.26,2-.36a21.83,21.83,0,0,1,3.52-.22,47.34,47.34,0,0,1,4.8.34c4.26.43,8.29.84,11.83-1.84l.35-.27c.65-.49,1.32-1,2-1.54a58.49,58.49,0,0,1,11-7.78,63.87,63.87,0,0,1,25.44-7,128.57,128.57,0,0,1,13.17-.08c2.5.1,5.07.25,7.56.41,10.17.62,20.69,1.27,30.24-1.9,10.61-3.52,17.42-12.74,22.17-20.38a99.86,99.86,0,0,0,6.5-13.21c.49-1.14,1-2.28,1.48-3.42,2.79-6.34,6.65-8.81,12.93-8.27a17.13,17.13,0,0,1,3.33.54c7.46,2.11,14.87,6.91,22,11.55l.93.61,2.33,1.51c7,4.52,14.53,9.1,22.85,11a31.1,31.1,0,0,0,15.39-.38,21.65,21.65,0,0,0,5.28-2.27,14.52,14.52,0,0,0,3.82-3.34,25.69,25.69,0,0,0,2.32-3.69,26.61,26.61,0,0,1,3.08-4.7c2.72-3.18,6.78-5.58,10.7-7.9,1.72-1,3.49-2.07,5.11-3.16a21.38,21.38,0,0,0,6.23-6.68A31.2,31.2,0,0,0,484.54,99c1-2,2-4.17,3.22-5.21a13.58,13.58,0,0,1,2.1-1.34c.32-.17.62-.34.92-.52.5-.32,1-.61,1.47-.89A34.16,34.16,0,0,0,495.58,89a23,23,0,0,0,6.75-7.76h0c.11-4.58-.93-8.87-2-13.41a80.83,80.83,0,0,1-2.11-10.89,35,35,0,0,1-.23-4.58c.24-6.89,5.66-17.16,11.4-18.89a12.9,12.9,0,0,1,2.83-.49c1.77-.16,3-.28,4.82-3,3.75-5.69-.32-14.78-4-19.5A38.18,38.18,0,0,0,509.74,6.58Z"/><path class="cls-3" d="M484.47.66l-.6-.62h-.52l.88.9c1,1,2.31,2.38,3.5,3.82,4.06,4.91,8,14.21,4.16,19.49-1.77,2.4-2.95,2.33-4.72,2.24a11.42,11.42,0,0,0-3.25.17c-6.85,1.45-12,13.19-11.68,19.8a32.42,32.42,0,0,0,.7,4.81,78.53,78.53,0,0,0,3.39,11c1.68,4.62,3.27,9,3.67,13.75a23.15,23.15,0,0,1-4.15,8.55,37.1,37.1,0,0,1-3.58,3.94c-.28.29-.58.56-.9.85a18.9,18.9,0,0,0-1.5,1.47,21.49,21.49,0,0,0-2.73,4.65c-.55,1.12-1.13,2.28-1.72,3.22a23.51,23.51,0,0,1-5.55,6.17c-1.87,1.43-4,2.79-6,4.09a59.68,59.68,0,0,0-8.56,6.27,42.55,42.55,0,0,0-3.1,3.34,32.05,32.05,0,0,1-3.11,3.27,16.54,16.54,0,0,1-3.79,2.46,23.75,23.75,0,0,1-4.93,1.63,33.7,33.7,0,0,1-14-.08c-7.66-1.71-14.72-5.52-21.2-9.39l-2.7-1.63-3.3-2c-5.7-3.51-11.6-7.14-17.47-9.3h-.11a18.31,18.31,0,0,0-2.83-.71c-6-1.13-9.83,1-12.5,6.87l-.35.77c-2.27,5-4.42,9.72-7.57,13.91-6.72,8.94-13.81,14.35-21.69,16.54-8.86,2.47-18.44,2-27.71,1.57-2.84-.14-5.79-.28-8.66-.33a107.65,107.65,0,0,0-12.7.42,55,55,0,0,0-24.45,8.25,51.46,51.46,0,0,0-9.91,8.78c-.5.53-1,1-1.52,1.56l-.49.49c-3.24,3.25-7.14,2.87-11.27,2.46-1.4-.14-2.85-.28-4.32-.29a19.86,19.86,0,0,0-3.44.27c-.67.12-1.33.26-2,.42a19.85,19.85,0,0,0-11.88,8.13,51.49,51.49,0,0,0-3,5.12l-.14.25a56.94,56.94,0,0,1-3.66,6.22c-2.49,3.54-6,6.84-11.28,10.69-.62.45-1.24.9-1.87,1.34-1.35,1-2.75,1.92-4.11,2.85l-2.05,1.41c-5.24,3.62-10.57,7.52-15.73,11.29-3.71,2.7-7.22,5.26-10.7,7.74l-3,2.12c-1.41,1-2.74,1.89-4,2.82a38.8,38.8,0,0,0-3.41,2.86,23.74,23.74,0,0,1-2.49,2.09A17.6,17.6,0,0,0,141,231a15.83,15.83,0,0,1-3,2.28,21.8,21.8,0,0,1-2.2,1l-.72.31a40.9,40.9,0,0,1-5.3,1.82c-1.5.41-3,.78-4.54,1.14-4.9,1.17-10,2.37-15.17,5.24A75.13,75.13,0,0,0,99.78,250c-4.66,3.7-9.06,7.19-14.44,8.55s-11.34,0-17.54-4.09a57.82,57.82,0,0,1-11.6-10.54c-.45-.52-.89-1-1.33-1.59l-.15-.19c-.77-.93-1.52-1.87-2.28-2.81-3.7-4.59-7.53-9.33-12-13.09a34.59,34.59,0,0,0-8.3-5.31,34.21,34.21,0,0,0-17.51-2.51A74.85,74.85,0,0,0,1.44,221l-1.34.39v.4c.48-.14,1-.29,1.43-.42a74.2,74.2,0,0,1,13.13-2.58A33.81,33.81,0,0,1,32,221.23a34.46,34.46,0,0,1,8.23,5.25c4.43,3.74,8.08,8.26,11.94,13.05l2.27,2.81.16.19c.44.53.88,1.07,1.33,1.59a57.69,57.69,0,0,0,11.68,10.6c6.28,4.16,12.27,5.55,17.8,4.15S95.3,254,100,250.25a74.59,74.59,0,0,1,10.15-7.12c5.16-2.84,10.21-4,15.08-5.21,1.5-.36,3-.73,4.55-1.14a40.71,40.71,0,0,0,5.35-1.84l.72-.3a23.36,23.36,0,0,0,2.23-1,16.16,16.16,0,0,0,3.12-2.33,19.27,19.27,0,0,1,1.86-1.52,25.48,25.48,0,0,0,2.53-2.11,38,38,0,0,1,3.37-2.84c1.28-.93,2.61-1.85,4-2.82l3-2.12c3.49-2.48,7-5,10.7-7.75,5.16-3.77,10.5-7.66,15.72-11.27l2.06-1.42c1.36-.93,2.76-1.89,4.11-2.85.63-.44,1.26-.89,1.87-1.34,5.35-3.88,8.85-7.2,11.37-10.78a58.56,58.56,0,0,0,3.69-6.25l.13-.26a55,55,0,0,1,3-5.08,20.94,20.94,0,0,1,3.11-3.54,20,20,0,0,1,8.57-4.45c.63-.16,1.29-.3,2-.42a20.18,20.18,0,0,1,3.38-.26c1.45,0,2.89.15,4.29.29,4.21.41,8.19.81,11.54-2.56l.49-.49c.5-.51,1-1,1.53-1.57a51.1,51.1,0,0,1,9.84-8.73,54.84,54.84,0,0,1,24.26-8.26,107.15,107.15,0,0,1,12.67-.42c2.86,0,5.8.19,8.65.33,9.29.44,18.9.9,27.81-1.58,7.95-2.22,15.1-7.67,21.87-16.66,3.18-4.23,5.33-9,7.61-14l.35-.77c2.63-5.78,6.26-7.78,12.13-6.67a18,18,0,0,1,2.78.7h.11c5.84,2.15,11.72,5.77,17.4,9.28,1.11.68,2.21,1.36,3.31,2l2.7,1.63c6.51,3.89,13.59,7.72,21.3,9.43a33.84,33.84,0,0,0,14.17.08,23.27,23.27,0,0,0,5-1.65,16.68,16.68,0,0,0,3.87-2.51,30.81,30.81,0,0,0,3.15-3.31,40.22,40.22,0,0,1,3.08-3.32,58.35,58.35,0,0,1,8.51-6.22c2-1.31,4.12-2.67,6-4.11A23.66,23.66,0,0,0,465.69,99c.6-1,1.18-2.12,1.74-3.25a21.2,21.2,0,0,1,2.71-4.56c.49-.55,1-1,1.47-1.45.33-.29.63-.57.93-.87a39,39,0,0,0,3.6-4,23.21,23.21,0,0,0,4.23-8.72V76c-.4-4.84-2-9.24-3.69-13.89a77.18,77.18,0,0,1-3.38-11,34.77,34.77,0,0,1-.69-4.76c-.36-6.47,4.71-18,11.4-19.4a11.16,11.16,0,0,1,3.16-.16c1.75.09,3.13.17,5-2.39,4-5.44,0-15-4.17-20C486.79,3.06,485.48,1.69,484.47.66Z"/><path class="cls-3" d="M463.62,0c3.57,4.73,7.53,13.72,3.41,18.77-1.87,2.3-3.14,2.06-4.9,1.73a10.21,10.21,0,0,0-3.57-.2c-3.32.44-5.86,3.18-7.41,5.41-3.09,4.42-4.9,10.71-4.3,14.94a33,33,0,0,0,1.16,5,78.65,78.65,0,0,0,4.63,11.05c2.3,4.77,4.46,9.27,5.37,14.33a25.16,25.16,0,0,1-1.68,9.52A31.19,31.19,0,0,1,454,85.45c-.33.57-.69,1.11-1.07,1.69l-.7,1.06c-.63,1-1.22,2.13-1.85,3.34s-1.4,2.69-2.17,3.86a27.82,27.82,0,0,1-5,5.77,91.12,91.12,0,0,1-8.9,6.61c-1.51,1-2.93,2-4.31,3l-1.7,1.25a47.45,47.45,0,0,1-5.31,3.58,23.62,23.62,0,0,1-3.87,1.66,27.32,27.32,0,0,1-4.65,1,38.79,38.79,0,0,1-12.85-.53c-5.94-1.24-12-3.64-19.66-7.78l-2.51-1.39c-2.29-1.29-4.63-2.69-6.89-4-4-2.38-8.09-4.85-12.14-6.78a20.54,20.54,0,0,0-2.49-1c-5.55-1.78-9.17-.16-11.74,5.26-2.08,4.39-4.39,9-7.91,12.76-6.39,6.81-13.59,11.13-21.4,12.85-8.16,1.79-16.78,1.49-25.11,1.21-3.27-.11-6.65-.23-10-.22a94.08,94.08,0,0,0-12.21.76,48,48,0,0,0-23.23,9.64c-3.55,2.83-5.92,5.93-8.65,9.69-.49.67-1,1.33-1.5,2l-.23.3c-3,3.93-6.8,3.56-10.83,3.17-1.3-.15-2.61-.24-3.92-.26a16,16,0,0,0-3.31.32c-.64.13-1.28.29-1.9.48a17.48,17.48,0,0,0-10.88,8.8,42.22,42.22,0,0,0-2.29,5.52l-.28.81a52.06,52.06,0,0,1-2.51,6.26c-2,3.9-5.17,7.56-10,11.49-.57.47-1.16.93-1.74,1.38-1.82,1.41-3.71,2.79-5.54,4.12l-.28.2-3.71,2.7c-7.19,5.25-14.62,10.68-22,15.22-2.2,1.36-4.41,2.62-6.55,3.83l-.64.36c-.76.43-1.47.85-2.14,1.25a45.31,45.31,0,0,1-4.66,2.5l-1.61.73a35.19,35.19,0,0,1-4.55,1.84c-.88.27-1.81.47-2.79.68l-.34.07a37.43,37.43,0,0,1-5.58.76c-1.58.09-3.21.11-4.79.14-5.13.07-10.43.14-15.56,2.64-4.29,2.11-7.69,5.52-11,8.81-3.74,3.74-7.27,7.28-11.91,8.93-5.43,1.93-11.54.63-17.67-3.76a48,48,0,0,1-11.13-11.62c-.45-.66-.9-1.33-1.34-2-1-1.47-1.92-3-2.84-4.45-3.08-4.87-6.26-9.92-10.13-14a31.44,31.44,0,0,0-8.06-6.31c-5.14-2.77-10.91-3.76-17.63-3.05a63,63,0,0,0-13.28,3.1c-.86.29-1.71.6-2.57.91v.4c.89-.32,1.78-.65,2.68-.94A62.68,62.68,0,0,1,16,199c6.65-.71,12.35.27,17.44,3a31.1,31.1,0,0,1,8,6.25c3.84,4,7,9.08,10.08,13.94.92,1.46,1.88,3,2.84,4.45.45.68.9,1.36,1.35,2a48.87,48.87,0,0,0,11.21,11.7c6.24,4.47,12.45,5.78,18,3.81,4.71-1.67,8.27-5.24,12-9,3.27-3.27,6.65-6.66,10.88-8.74,5.06-2.41,10.35-2.51,15.41-2.58,1.59,0,3.22-.05,4.81-.14a39.66,39.66,0,0,0,5.63-.76l.34-.08c1-.21,1.93-.41,2.82-.69a36.38,36.38,0,0,0,4.59-1.85l1.61-.73a42.18,42.18,0,0,0,4.68-2.52l2.15-1.24.63-.36c2.15-1.22,4.36-2.47,6.57-3.84,7.35-4.55,14.79-10,22-15.23l3.71-2.71.28-.2c1.83-1.33,3.72-2.7,5.54-4.12.59-.45,1.18-.92,1.75-1.39,4.87-4,8.08-7.65,10.1-11.61a51.13,51.13,0,0,0,2.53-6.3l.28-.81a40.16,40.16,0,0,1,2.27-5.47,17,17,0,0,1,10.65-8.62c.61-.19,1.24-.35,1.87-.48a14.7,14.7,0,0,1,3.24-.3,38.87,38.87,0,0,1,3.89.25c4.13.4,8,.77,11.13-3.31l.23-.3,1.51-2c2.71-3.73,5.06-6.82,8.58-9.61a47.68,47.68,0,0,1,23.07-9.57,93.2,93.2,0,0,1,12.16-.76c3.3,0,6.67.11,9.94.22,8.35.28,17,.58,25.19-1.22,7.88-1.73,15.14-6.09,21.57-13,3.56-3.8,5.89-8.43,8-12.86,2.51-5.29,5.9-6.81,11.33-5.07a18.06,18.06,0,0,1,2.44.94c4,1.93,8.15,4.39,12.12,6.76,2.26,1.36,4.6,2.76,6.9,4,.83.47,1.67.93,2.52,1.39,7.68,4.16,13.78,6.57,19.75,7.82a39.39,39.39,0,0,0,12.95.53,27,27,0,0,0,4.71-1,23,23,0,0,0,3.9-1.64,48.11,48.11,0,0,0,5.35-3.6c.54-.41,1.11-.82,1.7-1.25,1.37-1,2.79-2,4.29-3a89.08,89.08,0,0,0,8.94-6.63,28.26,28.26,0,0,0,5-5.85c.78-1.19,1.49-2.56,2.18-3.89s1.22-2.34,1.84-3.32l.69-1c.39-.58.75-1.13,1.09-1.7a32,32,0,0,0,2.4-4.92,25.56,25.56,0,0,0,1.7-9.71c-.92-5.14-3.2-9.88-5.41-14.47a78.39,78.39,0,0,1-4.6-11,30.82,30.82,0,0,1-1.15-4.92c-.59-4.14,1.19-10.3,4.23-14.65,1.51-2.17,4-4.84,7.17-5.26A9.89,9.89,0,0,1,462,21c1.8.33,3.22.6,5.22-1.85C471.44,14,467.62,5,464,.13Z"/><path class="cls-3" d="M442.2,0c2.09,4.59,3,9.92,0,13.34-2,2.2-3.28,1.8-5.1,1.24a10.24,10.24,0,0,0-3.88-.6c-2.8.18-5.6,2.13-7.89,5.49-3.18,4.65-4.79,11.13-3.84,15.4,1.32,5.9,4.42,11.12,7.43,16.16,2.8,4.71,5.7,9.58,7.13,15,2.27,8.56.49,17.74-5,25.87-7.39,11-20.13,18.27-32.46,18.65-10,.3-20.47-2.41-32.11-8.31-4.76-2.41-9.43-5.36-14-8.21L349.14,92c-3.5-2.18-6.16-2.87-8.38-2.19-1.85.58-3.37,2.11-4.64,4.68-1.89,3.81-4.15,7.77-7.9,10.84a44.31,44.31,0,0,1-21.08,9.17c-7.27,1.12-14.77,1-22,.81-7.71-.16-15.69-.32-23.42,1a42.47,42.47,0,0,0-22.06,11c-3.22,3.12-5.16,6.6-7.22,10.29-.52.93-1,1.89-1.62,2.86-2.68,4.62-6.22,4.27-10.33,3.88a19.68,19.68,0,0,0-6.76.14,16.08,16.08,0,0,0-11.71,10,42.4,42.4,0,0,0-1.78,7.1,46.52,46.52,0,0,1-1.56,6.47c-2.84,8.15-10,13.66-15.8,18.09-18.36,14.09-36.5,26.52-56.51,24-1.75-.22-3.55-.56-5.28-.89-5.28-1-10.73-2-15.71.08-4.48,1.9-7.7,6-10.81,10s-6.13,7.82-10.36,9.77C73.5,234,61.94,224.14,55.71,213c-1.43-2.57-2.79-5.32-4.11-8-4.29-8.68-8.74-17.66-16.58-22.58-5.14-3.23-11-4.4-17.75-3.58A63,63,0,0,0,.14,184v.41a62.83,62.83,0,0,1,17.21-5.21c6.72-.81,12.46.35,17.54,3.53,7.75,4.86,12.17,13.79,16.44,22.43,1.32,2.66,2.68,5.42,4.12,8,6.31,11.34,18,21.27,28.89,16.28,4.32-2,7.46-6,10.49-9.88s6.28-8,10.68-9.88c4.88-2.08,10.29-1.06,15.51-.06,1.75.33,3.55.67,5.31.89,20.14,2.55,38.34-9.93,56.76-24.06,5.81-4.45,13-10,15.92-18.27a47.41,47.41,0,0,0,1.58-6.53,41.23,41.23,0,0,1,1.76-7,15.71,15.71,0,0,1,11.46-9.79,19.54,19.54,0,0,1,6.65-.13c4,.39,7.86.76,10.66-4.05l1.62-2.87a40.45,40.45,0,0,1,7.15-10.2,42.21,42.21,0,0,1,21.88-10.87c7.71-1.36,15.67-1.19,23.37-1,7.26.15,14.78.31,22.08-.81a44.68,44.68,0,0,0,21.28-9.24c3.8-3.11,6.09-7.11,8-11,1.22-2.48,2.67-4,4.43-4.49,2.11-.66,4.69,0,8.1,2.15l3.34,2.1c4.53,2.85,9.21,5.8,14,8.22,11.69,5.92,22.25,8.66,32.27,8.35,12.44-.38,25.28-7.76,32.73-18.8,5.56-8.23,7.35-17.53,5.05-26.2-1.45-5.47-4.36-10.36-7.18-15.1-3-5-6.07-10.2-7.37-16-.94-4.17.65-10.51,3.77-15.09,2.23-3.26,4.94-5.16,7.63-5.33A9.9,9.9,0,0,1,437,15c1.86.57,3.33,1,5.44-1.34,3.14-3.51,2.24-8.93.16-13.61Z"/><path class="cls-3" d="M430.58,0V.29a8.58,8.58,0,0,1-2.07,5.33c-1.81,2-3,1.78-4.69,1.45a9.21,9.21,0,0,0-3.43-.19c-2.37.36-4.71,2.16-6.59,5.05-2.89,4.45-4.25,10.75-3.23,15a52.91,52.91,0,0,0,5.36,12.72l.43.87c2.48,4.94,4.82,9.6,5.75,15C423.89,66,418.85,77,408.27,85.65a49.13,49.13,0,0,1-17.8,9.43,41.64,41.64,0,0,1-7.58,1.4,59.13,59.13,0,0,1-13.75-.43l-.71-.1a40.38,40.38,0,0,1-6.35-1.29c-1.1-.35-2.22-.76-3.16-1.13-2.51-1-5-2.1-7.11-3.1-4-1.86-7.84-3.83-11.57-5.74l-.72-.37c-.92-.46-1.85-.93-2.77-1.36l-1.09-.51L334.6,82c-3.64-1.74-6.19-1.91-8.24-.55a7.81,7.81,0,0,0-2.1,2.11A14.09,14.09,0,0,0,323,86a38.32,38.32,0,0,1-3.07,6.27,20.59,20.59,0,0,1-4,4.58A43.19,43.19,0,0,1,295.57,106c-7,1.21-14.24,1.17-21.24,1.14-7.25,0-14.74-.06-22,1.28l-1.19.24c-.69.15-1.38.31-2.07.49a41.37,41.37,0,0,0-17.79,9.68c-.61.57-1.19,1.18-1.74,1.8a49,49,0,0,0-5.45,8.09c-.46.8-.94,1.62-1.43,2.45a10.44,10.44,0,0,1-1.73,2.19c-2.35,2.19-5.24,2-8.3,1.74a20.08,20.08,0,0,0-6.19.18,19.18,19.18,0,0,0-2.58.78,15.45,15.45,0,0,0-8.85,8.55,26,26,0,0,0-1,3.1c-.35,1.26-.63,2.55-.9,3.81a44.46,44.46,0,0,1-1.57,5.89,18.91,18.91,0,0,1-1.08,2.49c-1.88,3.72-4.87,7.16-9.43,10.83-1.6,1.3-3.24,2.5-4.77,3.61l-1.63,1.19c-12.08,8.71-26.23,18.17-41.47,20.25a42.42,42.42,0,0,1-11.2.1c-1.65-.21-3.35-.53-5-.84-5.07-1-10.31-1.93-15.11,0-4.3,1.76-7.42,5.56-10.45,9.24s-6,7.26-10,9a13.25,13.25,0,0,1-5.52,1.1c-8.66-.1-16.74-8.38-21.34-16l-.38-.63c-.43-.74-.89-1.54-1.34-2.38-.88-1.58-1.75-3.22-2.58-4.8-4.35-8.2-8.84-16.68-16.5-21.27-.54-.32-1.1-.63-1.66-.91A26,26,0,0,0,16.76,166c-.83.1-1.68.24-2.54.41A67.3,67.3,0,0,0,.14,171.11v.41a68.17,68.17,0,0,1,14.19-4.73c.85-.16,1.69-.3,2.51-.4a25.61,25.61,0,0,1,15.1,2.28c.55.27,1.1.57,1.63.89,7.58,4.54,12,13,16.36,21.13.84,1.59,1.71,3.22,2.58,4.81.46.83.92,1.64,1.35,2.39l.38.63c4.7,7.75,12.83,16.1,21.56,16.25a13.27,13.27,0,0,0,5.66-1.13c4.15-1.8,7.21-5.52,10.17-9.12s6.09-7.42,10.3-9.15c4.71-1.93,9.91-1,14.93,0,1.65.31,3.36.63,5,.84a43,43,0,0,0,11.28-.1c15.32-2.09,29.52-11.58,41.62-20.31l1.64-1.19c1.53-1.11,3.17-2.32,4.78-3.62,4.6-3.71,7.63-7.19,9.53-11a21.16,21.16,0,0,0,1.1-2.54,46.82,46.82,0,0,0,1.58-5.94c.27-1.25.55-2.55.89-3.79a27.17,27.17,0,0,1,1-3.05,15.06,15.06,0,0,1,8.65-8.35,17.17,17.17,0,0,1,2.53-.77,19.81,19.81,0,0,1,6.1-.17c3.13.24,6.09.46,8.55-1.83a10.36,10.36,0,0,0,1.79-2.27q.75-1.25,1.44-2.46a48,48,0,0,1,5.41-8c.54-.61,1.11-1.21,1.71-1.77a41.09,41.09,0,0,1,17.65-9.6l2-.49,1.18-.23c7.23-1.34,14.71-1.3,21.94-1.27,7,0,14.27.06,21.3-1.16a43.37,43.37,0,0,0,20.56-9.22,21.22,21.22,0,0,0,4-4.66,39.06,39.06,0,0,0,3.1-6.33,13.15,13.15,0,0,1,1.23-2.35,6.81,6.81,0,0,1,2-2c1.94-1.29,4.38-1.12,7.91.57l1.06.49,1.09.51c.91.43,1.84.89,2.76,1.36l.72.37c3.73,1.9,7.6,3.87,11.58,5.74,2.11,1,4.61,2.14,7.13,3.11.95.37,2.07.79,3.18,1.14a40,40,0,0,0,6.41,1.3l.7.1a59.82,59.82,0,0,0,13.83.43,42.29,42.29,0,0,0,7.64-1.41A49.47,49.47,0,0,0,408.48,86c10.69-8.8,15.78-19.9,14-30.47-.94-5.5-3.29-10.19-5.78-15.16l-.44-.87c-2.19-4.11-4.26-8.16-5.32-12.63-1-4.14.34-10.32,3.17-14.68,1.83-2.8,4.08-4.54,6.36-4.89a9.06,9.06,0,0,1,3.32.19c1.64.32,3.06.59,5-1.56A9.06,9.06,0,0,0,431,.31,1.31,1.31,0,0,0,431,0Z"/><path class="cls-3" d="M404.85,30.71l-.28-.58A61.42,61.42,0,0,1,400,18.83c-1-4-.1-9.61,2.22-13.75,1.49-2.66,3.42-4.42,5.43-5A.62.62,0,0,0,408,0h-1.29a10.88,10.88,0,0,0-4.81,4.84c-2.37,4.22-3.3,10-2.25,14.05a60.22,60.22,0,0,0,4.58,11.37l.28.58C406.65,36,407.92,40,408.19,45c.5,9.24-5.23,18.75-16.13,26.78a57.78,57.78,0,0,1-17.52,8.91,49.75,49.75,0,0,1-7.33,1.64A68.77,68.77,0,0,1,354,83h-1.67a20.17,20.17,0,0,1-5.08-.53c-1-.27-2.08-.64-3.1-1-2-.73-4-1.6-6-2.45l-1-.43c-4.32-1.87-8.46-3.57-12.29-5.06-.91-.35-1.83-.68-2.74-1L321,72.23l-1-.29c-3.42-1.07-5.64-.82-7.42.85A8.51,8.51,0,0,0,310.83,75a13.12,13.12,0,0,0-1,2.42l-.13.38a31.69,31.69,0,0,1-2.35,5.87,18,18,0,0,1-3.68,4.6c-4.88,4.35-11.87,7.59-19.69,9.13-6.73,1.31-13.71,1.41-20.46,1.5s-13.79.19-20.57,1.51l-1.13.23-2,.48a41.22,41.22,0,0,0-16.95,9.15c-.58.52-1.12,1.07-1.67,1.67a47.18,47.18,0,0,0-5.5,7.81c-.4.67-.81,1.35-1.24,2a10.71,10.71,0,0,1-1.65,2.08c-2.29,2.23-5.11,2.07-8.1,1.91a21.37,21.37,0,0,0-5.59.2,17.31,17.31,0,0,0-2.55.74,15.15,15.15,0,0,0-8.6,7.92,22.86,22.86,0,0,0-1.09,2.89c-.4,1.25-.72,2.55-1,3.81a46.9,46.9,0,0,1-1.55,5.32,22.51,22.51,0,0,1-1.06,2.35c-1.85,3.55-4.75,6.77-9.11,10.13-1.56,1.2-3.2,2.34-4.6,3.3L168,163.48c-12.33,8.34-25.68,16.29-39.86,18a43.13,43.13,0,0,1-10.65,0c-1.56-.2-3.17-.5-4.72-.78-4.87-.9-9.9-1.83-14.52,0-4.1,1.66-7.1,5.15-10,8.53s-5.81,6.69-9.72,8.29a12.68,12.68,0,0,1-5.27.92c-6.7-.27-14.27-6-20.24-15.42l-.37-.59c-.45-.74-.89-1.48-1.33-2.22-.77-1.32-1.53-2.67-2.27-4-4.63-8.16-9-15.86-16.55-20.15-.52-.3-1.06-.58-1.6-.84a25.31,25.31,0,0,0-14.61-2c-.78.1-1.6.23-2.42.39A66.7,66.7,0,0,0,.14,158.24v.41A66.44,66.44,0,0,1,13.93,154c.82-.16,1.63-.29,2.4-.39a25,25,0,0,1,14.43,2c.53.26,1.06.53,1.57.83,7.47,4.24,11.82,11.9,16.42,20l2.27,4c.44.75.88,1.49,1.34,2.23.12.2.24.4.37.6,6,9.48,13.71,15.31,20.52,15.58a12.79,12.79,0,0,0,5.4-.94c4-1.63,7-5.07,9.85-8.39s5.91-6.8,9.94-8.39c4.53-1.78,9.52-.87,14.34,0,1.56.29,3.17.59,4.74.79a43.78,43.78,0,0,0,10.73,0c14.25-1.71,27.65-9.69,40-18.06l1.58-1.07c1.4-1,3-2.11,4.61-3.31,4.41-3.39,7.34-6.65,9.22-10.25a21.48,21.48,0,0,0,1.08-2.4,45.05,45.05,0,0,0,1.56-5.36c.31-1.25.63-2.55,1-3.79a22.12,22.12,0,0,1,1.08-2.84,14.78,14.78,0,0,1,8.4-7.73,17.74,17.74,0,0,1,2.49-.72,20.76,20.76,0,0,1,5.51-.2c3.06.17,5.95.33,8.36-2a11,11,0,0,0,1.7-2.15c.43-.69.84-1.37,1.25-2a47,47,0,0,1,5.45-7.75c.54-.59,1.08-1.13,1.64-1.65A40.84,40.84,0,0,1,240,101.57l1.95-.48,1.12-.23c6.76-1.31,13.75-1.41,20.52-1.5s13.75-.19,20.51-1.5C292,96.31,299,93,303.94,88.64A17.94,17.94,0,0,0,307.7,84a31.31,31.31,0,0,0,2.36-6l.13-.38a14.3,14.3,0,0,1,1-2.35,8,8,0,0,1,1.67-2.13c1.68-1.58,3.8-1.8,7.1-.77l1,.29c.37.1.75.21,1.12.33a27.13,27.13,0,0,1,2.72,1c3.83,1.49,8,3.19,12.28,5l1,.44c1.95.85,4,1.72,6,2.46a29.92,29.92,0,0,0,3.13,1,20.35,20.35,0,0,0,5.16.54H354a69.39,69.39,0,0,0,13.28-.7A51.76,51.76,0,0,0,374.69,81a58.31,58.31,0,0,0,17.62-9c11-8.1,16.79-17.73,16.28-27.11C408.27,40,407,36,404.85,30.71Z"/><path class="cls-3" d="M392.51,19.73a65.89,65.89,0,0,1-3.37-8.9A20,20,0,0,1,389.62,0h-.37A20.33,20.33,0,0,0,388.78,11a67.38,67.38,0,0,0,3.41,9c.32.75.65,1.49,1,2.21a28.88,28.88,0,0,1,1.14,12.42c-1,10.07-10.57,18.32-18.44,23.46a72.45,72.45,0,0,1-17.24,8.4,69,69,0,0,1-7.08,1.89,93.56,93.56,0,0,1-12.68,1.83,13.92,13.92,0,0,0-1.86.21,12.22,12.22,0,0,1-4.59,0,28.05,28.05,0,0,1-3-.91c-1.64-.55-3.29-1.22-4.89-1.87l-2-.79a111,111,0,0,0-12.3-4,25.09,25.09,0,0,0-2.71-.57c-.41-.07-.81-.11-1.2-.15s-.56,0-.83-.09c-3.14-.41-5.11.26-6.6,2.24a10,10,0,0,0-1.38,2.33,15.71,15.71,0,0,0-.77,2.41l-.21.91a25.56,25.56,0,0,1-1.67,5.33,15.12,15.12,0,0,1-3.4,4.61c-6,5.62-14.48,8.13-19,9.13-6.47,1.41-13.19,1.64-19.69,1.85-6.31.22-12.83.44-19.13,1.73l-1.07.23c-.61.14-1.24.3-1.85.48a40.83,40.83,0,0,0-16.12,8.6c-.54.49-1.08,1-1.6,1.55a45.76,45.76,0,0,0-5.57,7.56l-1,1.59a12.14,12.14,0,0,1-1.57,2c-2.24,2.28-5,2.18-7.91,2.09a21.45,21.45,0,0,0-5,.22,15.83,15.83,0,0,0-2.51.69,15,15,0,0,0-8.36,7.28A21.77,21.77,0,0,0,180,127.5c-.45,1.26-.82,2.57-1.17,3.83a49.12,49.12,0,0,1-1.52,4.73,23,23,0,0,1-1,2.21,28.94,28.94,0,0,1-8.79,9.43c-1.57,1.14-3.19,2.19-4.42,3l-1.52,1c-11.73,7.25-24.4,14.25-38.32,15.63a43.57,43.57,0,0,1-10.08-.09c-1.46-.19-3-.46-4.43-.72-4.66-.85-9.49-1.72-13.93,0-3.92,1.47-6.86,4.65-9.7,7.73s-5.65,6.13-9.4,7.55a12,12,0,0,1-5,.74C61.85,182,54.27,172,51.42,167.72l-.36-.55c-.45-.68-.88-1.37-1.31-2.06-.65-1-1.29-2.09-1.93-3.13-4.68-7.73-9.19-15-16.68-19-.5-.27-1-.53-1.53-.76a24.67,24.67,0,0,0-13.91-1.75c-.75.1-1.52.24-2.3.39A65.3,65.3,0,0,0,.14,145.37v.41a66,66,0,0,1,13.4-4.57c.76-.16,1.53-.29,2.28-.39a24.37,24.37,0,0,1,13.72,1.72c.52.23,1,.48,1.52.75,7.36,4,11.81,11.21,16.51,18.9l1.92,3.13c.44.69.87,1.39,1.32,2.07l.33.56c3.58,5.33,10.86,14.36,19.48,14.92a12.21,12.21,0,0,0,5.15-.76c3.83-1.45,6.73-4.6,9.53-7.64s5.72-6.2,9.57-7.64c4.35-1.64,9.13-.77,13.76.06,1.46.27,3,.54,4.44.73a44.43,44.43,0,0,0,10.18.09c14-1.42,26.7-8.43,38.39-15.79l1.53-1c1.24-.8,2.86-1.86,4.44-3a29.25,29.25,0,0,0,8.9-9.55,23.54,23.54,0,0,0,1-2.24,44.29,44.29,0,0,0,1.53-4.78c.36-1.25.72-2.55,1.17-3.8a21,21,0,0,1,1.12-2.63,14.61,14.61,0,0,1,8.16-7.11,16,16,0,0,1,2.46-.67,21.23,21.23,0,0,1,4.91-.22c3,.1,5.81.19,8.16-2.19a12.44,12.44,0,0,0,1.62-2l1-1.59a46.08,46.08,0,0,1,5.52-7.51c.51-.53,1-1,1.59-1.53a40.6,40.6,0,0,1,16-8.53c.61-.17,1.24-.32,1.85-.46.35-.09.7-.16,1.05-.24,6.28-1.28,12.78-1.5,19.08-1.71,6.52-.22,13.26-.45,19.75-1.87h0c4.54-1,13.06-3.54,19.14-9.21a15.59,15.59,0,0,0,3.52-4.73,26.07,26.07,0,0,0,1.7-5.4l.21-.91a14,14,0,0,1,.75-2.35,10.29,10.29,0,0,1,1.34-2.26c1.42-1.89,3.24-2.5,6.29-2.1l.84.1a7,7,0,0,1,1.18.14,24.52,24.52,0,0,1,2.68.56,114.67,114.67,0,0,1,12.26,4l2,.8c1.61.65,3.26,1.32,4.91,1.88a30.18,30.18,0,0,0,3.08.91,12.86,12.86,0,0,0,4.71,0c.59-.08,1.21-.17,1.83-.21a93.91,93.91,0,0,0,12.72-1.83,69.83,69.83,0,0,0,7.12-1.91,72.78,72.78,0,0,0,17.33-8.43c7.94-5.19,17.6-13.52,18.59-23.75A29.26,29.26,0,0,0,393.47,22C393.14,21.22,392.83,20.47,392.51,19.73Z"/><path class="cls-3" d="M380.59,9.33c-.83-2.1-1.7-4.26-2.37-6.49a17.85,17.85,0,0,1-.58-2.8h-.36A17.91,17.91,0,0,0,377.89,3c.67,2.25,1.54,4.43,2.38,6.53.51,1.27,1,2.58,1.49,3.84.7,3.87-.06,6.36-1,9.5-.12.38-.24.77-.36,1.18-2,6.7-8.77,13.29-20.73,20.15a102,102,0,0,1-17,7.88c-2.2.76-4.5,1.49-6.84,2.14-4.68,1.31-8.65,2.27-12.15,3a16.83,16.83,0,0,0-1.85.5,8.64,8.64,0,0,1-4.3.54,22.06,22.06,0,0,1-3-.79c-1.42-.44-2.88-1-4.29-1.54-.87-.33-1.68-.64-2.44-.91a63.12,63.12,0,0,0-12.26-3,16.14,16.14,0,0,0-2.69-.17,6.66,6.66,0,0,0-1.35.09l-.62.06a6.31,6.31,0,0,0-5.74,3.65,13.6,13.6,0,0,0-1,2.44,16.67,16.67,0,0,0-.51,2.41c-.06.41-.12.81-.17,1.2a20.84,20.84,0,0,1-1.13,5,13.19,13.19,0,0,1-3.19,4.65c-5.45,5.33-13.78,8-18.26,9.12-6.2,1.52-12.68,1.88-18.94,2.23a112.76,112.76,0,0,0-17.67,1.92l-1,.23c-.58.14-1.17.3-1.75.47a40.88,40.88,0,0,0-15.26,8.06c-.53.45-1,.93-1.55,1.42a44.71,44.71,0,0,0-5.67,7.33l-.77,1.14a13.44,13.44,0,0,1-1.49,1.87c-2.19,2.34-4.89,2.31-7.75,2.28a23.36,23.36,0,0,0-4.34.23,15.17,15.17,0,0,0-2.47.63,14.91,14.91,0,0,0-8.12,6.65,20.9,20.9,0,0,0-1.19,2.48c-.51,1.26-.93,2.58-1.34,3.85s-.89,2.8-1.47,4.14a19.71,19.71,0,0,1-1,2.07,26.54,26.54,0,0,1-8.47,8.72c-1.2.82-2.55,1.67-4.25,2.68l-1.46.85c-10.44,6-23,12.36-36.64,13.49a45,45,0,0,1-9.57-.18c-1.36-.18-2.77-.43-4.13-.67-4.47-.8-9.08-1.62-13.35-.1-3.72,1.33-6.57,4.2-9.31,7s-5.5,5.56-9.09,6.81a11.47,11.47,0,0,1-4.76.56c-7.21-.66-13.88-8-18.2-14.11l-.35-.51c-.44-.64-.88-1.28-1.3-1.91l-1.44-2.17c-4.87-7.37-9.47-14.33-16.88-18-.48-.24-1-.47-1.48-.68a24.17,24.17,0,0,0-13.19-1.46c-.7.1-1.44.23-2.19.38a64,64,0,0,0-12.9,4.4V133a63.69,63.69,0,0,1,13-4.49c.74-.16,1.47-.28,2.17-.38a23.89,23.89,0,0,1,13,1.44c.49.2,1,.43,1.45.67,7.32,3.66,11.9,10.58,16.74,17.91.48.72,1,1.45,1.45,2.17s.85,1.28,1.3,1.92l.35.51C54,158.83,60.7,166.28,68.05,167a11.6,11.6,0,0,0,4.89-.58c3.67-1.27,6.49-4.13,9.22-6.89s5.54-5.59,9.19-6.89c4.18-1.5,8.76-.68,13.19.1,1.36.25,2.77.5,4.14.67a45,45,0,0,0,9.64.19c13.75-1.13,26.3-7.48,36.77-13.53l1.47-.86c1.7-1,3.06-1.86,4.27-2.69a26.69,26.69,0,0,0,8.58-8.85,20.18,20.18,0,0,0,1-2.1c.58-1.36,1-2.79,1.48-4.18s.82-2.57,1.33-3.82a21.56,21.56,0,0,1,1.17-2.42,14.64,14.64,0,0,1,7.93-6.5,15.47,15.47,0,0,1,2.41-.61,22.82,22.82,0,0,1,4.29-.23c2.93,0,5.7.06,8-2.38a15.81,15.81,0,0,0,1.53-1.93l.76-1.14a44.49,44.49,0,0,1,5.63-7.26,18,18,0,0,1,1.52-1.41,40.92,40.92,0,0,1,15.14-8c.58-.16,1.16-.32,1.74-.46l1-.22A112,112,0,0,1,242,83.05c6.28-.35,12.78-.71,19-2.24,4.51-1.13,12.9-3.82,18.42-9.2a13.74,13.74,0,0,0,3.2-4.76,20.89,20.89,0,0,0,1.16-5.12c0-.39.1-.79.16-1.2a18.92,18.92,0,0,1,.51-2.35,13,13,0,0,1,1-2.37c1.16-2.24,2.74-3.23,5.48-3.43l.63-.06c.43,0,.87-.08,1.33-.09a17.78,17.78,0,0,1,2.63.16,63.47,63.47,0,0,1,12.24,2.94l2.43.91c1.42.54,2.88,1.1,4.32,1.55a23.67,23.67,0,0,0,3,.8,9,9,0,0,0,4.45-.56,16.28,16.28,0,0,1,1.82-.49c3.5-.68,7.48-1.65,12.16-3,2.35-.66,4.66-1.38,6.86-2.15a100.57,100.57,0,0,0,17-7.91c12.05-6.9,18.88-13.56,20.91-20.37.12-.4.24-.79.35-1.17,1-3.2,1.75-5.72,1-9.72A35.82,35.82,0,0,0,380.59,9.33Z"/><path class="cls-3" d="M369.21,0h-.38c.56,1.52,1.1,3,1.54,4.52.11,3-1.09,4.71-2.48,6.74-.46.68-.95,1.38-1.4,2.17-3.85,6.67-13.35,12-23,16.84a178.39,178.39,0,0,1-16.69,7.37c-2,.73-4.06,1.49-6.6,2.39l-3.68,1.31c-2.82,1-5.48,2-7.92,2.78a14,14,0,0,0-1.77.79A6.91,6.91,0,0,1,302.75,46a19.34,19.34,0,0,1-2.92-.68c-1.28-.37-2.61-.85-3.9-1.31-1-.35-1.89-.67-2.7-.92a42.85,42.85,0,0,0-12.31-1.9,13.22,13.22,0,0,0-2.66.23c-.6.12-1.15.3-1.69.46l-.24.08a7.07,7.07,0,0,0-4.92,5,18.93,18.93,0,0,0-.68,2.56,19.37,19.37,0,0,0-.27,2.4,10.09,10.09,0,0,1-.06,1.36,17.59,17.59,0,0,1-.64,4.84,11.41,11.41,0,0,1-2.84,4.65c-4.66,4.76-12.12,7.58-17.55,9.1-6,1.65-12.23,2.15-18.23,2.63A110.37,110.37,0,0,0,215,76.62l-.94.22c-.55.14-1.1.29-1.65.46a41.46,41.46,0,0,0-14.42,7.52c-.51.42-1,.86-1.48,1.3a44.34,44.34,0,0,0-5.84,7.13l-.48.7a20.26,20.26,0,0,1-1.41,1.77c-2.17,2.41-4.82,2.44-7.63,2.47a26.5,26.5,0,0,0-3.67.23A13.54,13.54,0,0,0,175,99a15.08,15.08,0,0,0-7.87,6,21.53,21.53,0,0,0-1.24,2.26c-.59,1.27-1.07,2.6-1.53,3.87s-.87,2.41-1.39,3.56a20.38,20.38,0,0,1-1,1.92,24,24,0,0,1-8.15,8c-1.16.74-2.46,1.5-4.08,2.37l-1.4.74c-9.16,4.8-21.43,10.4-35,11.23a46.68,46.68,0,0,1-9-.27c-1.26-.17-2.56-.39-3.81-.61-4.28-.75-8.69-1.51-12.78-.14-3.54,1.18-6.28,3.74-8.93,6.22s-5.35,5-8.79,6.07a10.55,10.55,0,0,1-4.5.38c-6.9-.85-13.11-8.09-17.17-13.46l-.36-.47c-.43-.58-.86-1.17-1.27-1.75l-.76-1c-5.08-7.08-9.88-13.76-17.32-17.2-.46-.22-.94-.42-1.41-.6l-.63-.24a24,24,0,0,0-11.85-1c-.69.11-1.39.24-2.07.38A63.34,63.34,0,0,0,.14,119.63V120a63.3,63.3,0,0,1,12.61-4.41c.67-.15,1.36-.28,2-.38a23.41,23.41,0,0,1,12.32,1.17c.47.18.93.38,1.39.59,7.36,3.4,12.13,10,17.18,17.08l.76,1c.42.58.84,1.17,1.28,1.76.12.16.23.32.35.47C52.14,142.8,58.42,150.1,65.44,151a10.72,10.72,0,0,0,4.64-.4c3.51-1.09,6.26-3.66,8.92-6.14s5.34-5,8.8-6.15c4-1.34,8.39-.58,12.62.15,1.26.22,2.56.45,3.83.62a47.61,47.61,0,0,0,9.09.27c13.67-.83,26-6.45,35.16-11.26l1.41-.75c1.63-.87,2.93-1.63,4.1-2.38a24.42,24.42,0,0,0,8.27-8.15,16.94,16.94,0,0,0,1-2c.53-1.17,1-2.4,1.4-3.59a37.68,37.68,0,0,1,1.52-3.84,19,19,0,0,1,1.21-2.21,14.72,14.72,0,0,1,7.73-5.81,15,15,0,0,1,2.38-.56,25.93,25.93,0,0,1,3.63-.23c2.88,0,5.6-.07,7.87-2.59a21,21,0,0,0,1.44-1.8l.45-.65a44.13,44.13,0,0,1,5.79-7.07c.46-.44,1-.87,1.46-1.28a41.15,41.15,0,0,1,14.3-7.47c.55-.16,1.1-.31,1.64-.44L215,77a112,112,0,0,1,16.11-2.1c6.05-.48,12.3-1,18.27-2.64h0c5.48-1.53,13-4.37,17.71-9.19a12,12,0,0,0,2.93-4.8,17.62,17.62,0,0,0,.66-5,8.86,8.86,0,0,1,.07-1.35,18.72,18.72,0,0,1,.26-2.36,18,18,0,0,1,.66-2.5,6.62,6.62,0,0,1,4.69-4.76l.24-.08c.53-.16,1.07-.33,1.65-.45a12.48,12.48,0,0,1,2.59-.23,42.56,42.56,0,0,1,12.27,1.93c.8.25,1.71.58,2.69.93,1.29.46,2.63.94,3.92,1.31a18.12,18.12,0,0,0,3,.69A7.21,7.21,0,0,0,307,45.3a13.32,13.32,0,0,1,1.72-.78c2.45-.83,5.11-1.77,7.93-2.78l3.68-1.31c2.54-.9,4.64-1.66,6.6-2.39q8.54-3.27,16.72-7.38c11.26-5.58,19.51-10.6,23.2-17,.44-.77.92-1.47,1.39-2.15,1.37-2,2.66-3.89,2.54-7v0C370.29,3,369.75,1.5,369.21,0Z"/><path class="cls-3" d="M356.22,0c-.38.31-.78.61-1.19.92a19.33,19.33,0,0,0-2.42,2c-5,5-13.89,8.73-23.32,12.68l-2,.86-4.16,1.75c-4.1,1.73-8.33,3.52-12.25,5.1-2.25.9-4.39,1.79-6.35,2.64-4.34,1.89-8.2,3.78-11.07,5.22a12.17,12.17,0,0,0-1.66,1.09,5.81,5.81,0,0,1-3.89,1.57,17.31,17.31,0,0,1-2.85-.56c-1.17-.32-2.39-.73-3.58-1.12s-2.06-.69-2.9-.91a32.81,32.81,0,0,0-12.32-.84,11.35,11.35,0,0,0-2.63.64,13,13,0,0,0-1.87.93c-2.22,1.3-3.52,3.32-4.08,6.38-.15.85-.26,1.73-.33,2.66s0,1.6,0,2.4c0,.49,0,1,.08,1.42a15.9,15.9,0,0,1-.19,4.77,10.16,10.16,0,0,1-2.56,4.66c-3.32,3.56-9,6.62-16.85,9.09-5.69,1.78-11.69,2.43-17.5,3a111.94,111.94,0,0,0-14.68,2.26l-.88.22c-.52.14-1,.29-1.55.45a42.62,42.62,0,0,0-13.57,7c-.48.38-1,.77-1.42,1.18a43.39,43.39,0,0,0-6,7l-.09.13c-.43.58-.87,1.13-1.33,1.67-2.14,2.51-4.76,2.6-7.53,2.69a21.61,21.61,0,0,0-3,.21,13.17,13.17,0,0,0-2.4.52,15.22,15.22,0,0,0-7.69,5.35,15.5,15.5,0,0,0-1.29,2c-.68,1.28-1.23,2.61-1.76,3.9-.4,1-.82,2-1.28,3-.3.61-.64,1.2-1,1.78a22,22,0,0,1-7.82,7.32c-1.14.67-2.38,1.32-3.91,2.06q-.68.33-1.35.63c-12.38,5.74-23,8.59-33.42,9a50.08,50.08,0,0,1-8.48-.37c-1.16-.15-2.35-.35-3.5-.55-4.08-.69-8.3-1.41-12.22-.18-3.34,1-6,3.28-8.53,5.45s-5.21,4.44-8.5,5.34a10,10,0,0,1-4.24.2c-6.09-1-11.53-7.12-16.15-12.8l-.35-.43-1.2-1.61c-5.3-6.75-10.3-13.13-17.82-16.29q-.64-.27-1.32-.51h0a23.38,23.38,0,0,0-11.76-.9c-.64.1-1.29.22-2,.37a62.62,62.62,0,0,0-12.1,4.28v.41a62.92,62.92,0,0,1,12.21-4.34c.66-.14,1.31-.26,1.94-.36a23,23,0,0,1,11.6.88h0c.44.16.9.33,1.33.51C34.66,107,39.64,113.33,44.9,120c.41.53.83,1.07,1.27,1.61l.34.43C51.18,127.82,56.67,134,62.88,135a10.44,10.44,0,0,0,4.38-.21c3.36-.92,6-3.2,8.63-5.41S81,125,84.3,124c3.84-1.2,8-.49,12.07.2,1.15.19,2.34.4,3.5.55a50.79,50.79,0,0,0,8.54.37c10.47-.39,21.13-3.25,33.55-9l1.35-.64c1.54-.74,2.79-1.4,3.93-2.08a22.3,22.3,0,0,0,8-7.44c.34-.56.66-1.16,1-1.81.47-1,.89-2,1.3-3a40.34,40.34,0,0,1,1.6-3.84,15.3,15.3,0,0,1,1.26-2,14.88,14.88,0,0,1,7.45-5.26,13.4,13.4,0,0,1,2.34-.52c1-.13,2-.16,2.94-.2,2.85-.09,5.54-.19,7.78-2.81.47-.55.91-1.1,1.34-1.69l.1-.13a43.24,43.24,0,0,1,6-6.89c.46-.41.93-.8,1.4-1.17a42.36,42.36,0,0,1,13.47-6.93c.51-.15,1-.3,1.53-.43l.87-.23a109.68,109.68,0,0,1,14.64-2.25c5.83-.63,11.85-1.28,17.57-3.06,7.92-2.49,13.64-5.58,17-9.19a10.47,10.47,0,0,0,2.66-4.84,16.31,16.31,0,0,0,.2-4.88c0-.46-.06-.93-.08-1.41a20,20,0,0,1,.33-5c.55-3,1.75-4.86,3.9-6.11a12.37,12.37,0,0,1,1.82-.91,10.67,10.67,0,0,1,2.55-.62,32.38,32.38,0,0,1,12.2.83c.82.22,1.82.55,2.88.9s2.42.81,3.6,1.13a15.94,15.94,0,0,0,2.91.57,6.1,6.1,0,0,0,4.11-1.64,10.12,10.12,0,0,1,1.61-1.05c2.87-1.44,6.72-3.33,11.05-5.21,2-.85,4.09-1.74,6.34-2.64,3.92-1.58,8.16-3.37,12.25-5.1l4.17-1.75,2-.86c9.46-4,18.4-7.72,23.43-12.76a20.23,20.23,0,0,1,2.38-1.95c.54-.4,1.07-.8,1.57-1.23Z"/><path class="cls-3" d="M318.94,0c-2.59.83-5.23,1.68-7.9,2.61C306,4.38,300.58,6.51,294.9,9a97,97,0,0,0-16.64,9.25,11.54,11.54,0,0,0-1.52,1.36c-1,1-2.07,2.08-3.73,2.1a12,12,0,0,1-2.78-.46c-1.09-.26-2.24-.61-3.36-1a25.64,25.64,0,0,0-3-.85,26.23,26.23,0,0,0-12.33.22,10.66,10.66,0,0,0-2.6,1c-3.18,1.85-4.78,4.73-5.05,9.06a25.78,25.78,0,0,0,0,2.78,30.5,30.5,0,0,0,.44,3.8,14.92,14.92,0,0,1,.26,4.76,9,9,0,0,1-2.29,4.68c-3.9,4.41-11.07,7.3-16.13,9.08-5.44,1.92-11.23,2.73-16.82,3.51a105.51,105.51,0,0,0-14,2.6c-.48.13-1,.27-1.44.43a39.17,39.17,0,0,0-20.4,14.46c-.28.36-.57.73-.87,1.09-2.15,2.67-4.77,2.8-7.56,2.94-.7,0-1.42.08-2.14.15a13.53,13.53,0,0,0-2.36.48,15.4,15.4,0,0,0-8.72,6.6,39.05,39.05,0,0,0-2,3.92,31.66,31.66,0,0,1-2.09,4,19.67,19.67,0,0,1-7.5,6.61,50.09,50.09,0,0,1-5,2.28c-11.21,4.46-21.32,6.59-31.81,6.71a54.07,54.07,0,0,1-7.94-.46c-1-.14-2.12-.31-3.15-.49-3.9-.64-7.93-1.3-11.69-.23-3.13.89-5.66,2.83-8.11,4.7-2.61,2-5.08,3.88-8.22,4.6a9.3,9.3,0,0,1-4,0c-5.42-1.08-10.25-6.58-14.5-11.43l-.63-.72c-.55-.62-1.08-1.24-1.59-1.83C38,98.11,32.65,92.46,24.74,90a24,24,0,0,0-12.89-.26A61.71,61.71,0,0,0,.14,93.89v.41A61.32,61.32,0,0,1,12,90a23.79,23.79,0,0,1,12.72.25c7.76,2.48,13,8.12,18.66,14.66.52.59,1,1.21,1.59,1.83l.63.72c4.29,4.89,9.17,10.44,14.69,11.55a9.59,9.59,0,0,0,4.13,0c3.21-.74,5.82-2.73,8.35-4.66s4.93-3.77,8-4.64c3.69-1.06,7.68-.4,11.54.24,1,.17,2.12.35,3.17.49a54.88,54.88,0,0,0,8,.46c10.53-.12,20.68-2.26,31.93-6.74a49.47,49.47,0,0,0,5-2.25,20,20,0,0,0,7.63-6.74,31.79,31.79,0,0,0,2.11-4,37.4,37.4,0,0,1,2-3.88,14.94,14.94,0,0,1,8.51-6.44,12,12,0,0,1,2.3-.47c.72-.07,1.43-.11,2.13-.15,2.86-.14,5.56-.28,7.81-3.07l.87-1.09a42.52,42.52,0,0,1,6.36-6.91,43.13,43.13,0,0,1,14-7.44c.47-.15,1-.29,1.42-.42a102.89,102.89,0,0,1,13.93-2.59c5.61-.79,11.41-1.59,16.89-3.53,5.09-1.8,12.32-4.7,16.28-9.18A9.29,9.29,0,0,0,245,41.17a15.22,15.22,0,0,0-.26-4.9,29.5,29.5,0,0,1-.44-3.75,25,25,0,0,1,0-2.74c.26-4.24,1.77-6.94,4.87-8.74a9.9,9.9,0,0,1,2.51-1,26,26,0,0,1,12.18-.22c.81.18,1.86.5,3,.84s2.27.7,3.38,1a12,12,0,0,0,2.86.46c1.79,0,2.89-1.13,4-2.2a11.54,11.54,0,0,1,1.47-1.32,96.65,96.65,0,0,1,16.58-9.22C300.7,6.87,306.14,4.74,311.14,3c3.06-1.07,6.09-2,9-3Z"/><path class="cls-3" d="M270,0a66.24,66.24,0,0,0-5.47,4.26A15.8,15.8,0,0,0,263,5.87a7.11,7.11,0,0,1-3.4,2.64,12.71,12.71,0,0,1-2.45.29,17.18,17.18,0,0,1-3.72-.2c-.4-.07-.8-.16-1.2-.25L251,8.11a31.09,31.09,0,0,0-5.53-.6,23.32,23.32,0,0,0-7.36,1.22A11.17,11.17,0,0,0,235.52,10a10.38,10.38,0,0,0-3.29,3.4,13.34,13.34,0,0,0-1.7,6.29,23.74,23.74,0,0,0,.09,2.92,28.94,28.94,0,0,0,.69,4.13l.08.33a21.87,21.87,0,0,1,.68,4.26,7.78,7.78,0,0,1-1.31,4.75,14.86,14.86,0,0,1-2.53,3c-3.81,3.41-9.71,5.76-13.62,7.31-5.2,2.06-10.76,3-16.13,4a108.75,108.75,0,0,0-12.62,2.76l-.68.22-.67.22a45.69,45.69,0,0,0-13.3,7.09,45,45,0,0,0-6.33,6.4l-.7.81c-2.09,2.4-4.58,2.6-7.21,2.82h-.13c-.61,0-1.22.11-1.83.19a12,12,0,0,0-2.21.51,15.8,15.8,0,0,0-8.31,6.12c-.76,1.12-1.38,2.28-2,3.4a33.42,33.42,0,0,1-2.2,3.68,17.33,17.33,0,0,1-5.73,4.9c-.49.27-1,.53-1.53.77a40.79,40.79,0,0,1-4.76,1.8,90.89,90.89,0,0,1-29.74,4.26,66.31,66.31,0,0,1-7.45-.54l-2.76-.42c-3.75-.6-7.62-1.22-11.25-.29A25.18,25.18,0,0,0,69.41,99c-2.54,1.7-5,3.32-7.94,3.87a8.88,8.88,0,0,1-3.77-.16c-4.44-1.11-8.28-5.28-12-9.31L44.4,92l-1.12-1.19L41.7,89.18c-5.43-5.73-10.45-10-17.32-12.08-.41-.12-.82-.24-1.24-.34a24.8,24.8,0,0,0-12.31.29,64.08,64.08,0,0,0-10.73,4v.41a65.25,65.25,0,0,1,10.81-4,24.51,24.51,0,0,1,12.15-.3c.41.1.82.22,1.22.34,6.79,2.07,11.79,6.29,17.17,12L43,91.16l1.1,1.14,1.3,1.4c3.76,4.07,7.7,8.25,12.18,9.41a9.06,9.06,0,0,0,3.91.17c3.06-.57,5.61-2.28,8.07-3.93a24.65,24.65,0,0,1,7.54-3.88c3.57-.91,7.4-.3,11.12.29.91.15,1.85.3,2.77.43a67,67,0,0,0,7.49.54,91,91,0,0,0,29.88-4.34,43.2,43.2,0,0,0,4.79-1.81q.81-.37,1.56-.78a17.58,17.58,0,0,0,5.84-5,31.91,31.91,0,0,0,2.24-3.72c.61-1.15,1.28-2.28,2-3.36a15.57,15.57,0,0,1,8.13-6,12.28,12.28,0,0,1,2.16-.49c.6-.08,1.2-.14,1.81-.19h.13c2.7-.22,5.26-.43,7.43-2.94l.71-.81A44.59,44.59,0,0,1,171.45,61a45.63,45.63,0,0,1,13.2-7l.66-.22.67-.21a106.2,106.2,0,0,1,12.59-2.75c5.39-1,11-1.93,16.19-4,3.93-1.57,9.87-3.93,13.73-7.38a14.78,14.78,0,0,0,2.58-3,8.21,8.21,0,0,0,1.38-5,21.22,21.22,0,0,0-.69-4.34l-.07-.33a28,28,0,0,1-.69-4.08,27.32,27.32,0,0,1-.09-2.86,13,13,0,0,1,1.64-6.1,10.13,10.13,0,0,1,3.19-3.29,10.46,10.46,0,0,1,2.54-1.23A22.8,22.8,0,0,1,245.51,8a30.42,30.42,0,0,1,5.46.6l1.18.24,1.21.25a17.92,17.92,0,0,0,3.8.2,12.48,12.48,0,0,0,2.51-.3,7.39,7.39,0,0,0,3.58-2.75,16.1,16.1,0,0,1,1.45-1.53A66.72,66.72,0,0,1,270.6.1Z"/><path class="cls-3" d="M221.85,0h-.58a11.38,11.38,0,0,0-2.39,3,14.38,14.38,0,0,0-1.65,6.61,20,20,0,0,0,.16,3,25.08,25.08,0,0,0,.91,4.28c.14.51.29,1,.43,1.47.34,1.09.65,2.12.86,3.13a7.36,7.36,0,0,1-.35,4.83,11,11,0,0,1-2.18,3.3c-3.29,3.43-8.92,5.91-13,7.72l-1,.42c-4.94,2.18-10.26,3.35-15.41,4.48a112.57,112.57,0,0,0-11.29,2.9l-.64.21-.61.22a50.46,50.46,0,0,0-12.52,6.69,48.93,48.93,0,0,0-6.3,5.91l-.53.56c-2,2.13-4.37,2.41-6.86,2.71h0c-.55.07-1.12.14-1.71.24a13.37,13.37,0,0,0-2.07.53,16.87,16.87,0,0,0-8,5.7c-.71.94-1.33,1.91-1.92,2.85a31.22,31.22,0,0,1-2.36,3.36,15.63,15.63,0,0,1-5.56,4.13c-.47.22-1,.43-1.46.61a35.48,35.48,0,0,1-4.49,1.32c-7.94,1.86-16.5,2.46-27.73,1.93-2.59-.14-4.87-.34-7-.63-.77-.1-1.55-.22-2.32-.34C80.69,80.62,77,80,73.43,80.82A25.75,25.75,0,0,0,66.33,84c-2.49,1.42-4.84,2.76-7.69,3.14a8.41,8.41,0,0,1-3.56-.33l-.43-.15c-3.51-1.2-6.57-4.48-9.51-7.66-.86-.91-1.74-1.85-2.62-2.73l-1.1-1.09c-.54-.52-1.07-1-1.58-1.49-5.86-5.48-11-8.42-17.08-9.82-.39-.09-.79-.17-1.19-.24a25.84,25.84,0,0,0-11.72.85A67.67,67.67,0,0,0,.14,68.19v.41a68.9,68.9,0,0,1,9.8-3.79A25.58,25.58,0,0,1,21.47,64q.6.1,1.17.24C28.69,65.6,33.75,68.51,39.57,74c.51.48,1,1,1.57,1.5.37.35.73.71,1.1,1.08.88.87,1.76,1.81,2.61,2.72,3,3.2,6.12,6.51,9.69,7.79l.44.14a8.44,8.44,0,0,0,3.7.35c2.92-.39,5.3-1.75,7.81-3.19a25.53,25.53,0,0,1,7.09-3.12c3.45-.77,7.16-.2,10.74.35l2.32.38c2.11.29,4.39.49,7,.63,11.27.53,19.85-.07,27.83-1.94A35.62,35.62,0,0,0,126,79.31c.5-.19,1-.39,1.48-.62a16,16,0,0,0,5.66-4.27A31.12,31.12,0,0,0,135.53,71c.59-.93,1.2-1.89,1.9-2.82a16.44,16.44,0,0,1,7.75-5.53,12.51,12.51,0,0,1,2-.52c.58-.1,1.16-.17,1.69-.24h.06c2.55-.31,5-.6,7.07-2.82l.52-.56A43.34,43.34,0,0,1,175.21,46l.61-.21.63-.22a112,112,0,0,1,11.26-2.89c5.17-1.13,10.51-2.3,15.48-4.5l1-.42C208.33,36,214,33.46,217.33,30a11.38,11.38,0,0,0,2.26-3.42,7.75,7.75,0,0,0,.37-5.07c-.21-1-.53-2.07-.86-3.17-.15-.47-.29-1-.44-1.46a25.22,25.22,0,0,1-.89-4.21,21.55,21.55,0,0,1-.16-3,14,14,0,0,1,1.53-6.41A11,11,0,0,1,221.85,0Z"/><path class="cls-3" d="M206.72,10c-.39-.92-.79-1.88-1.14-2.9a22.58,22.58,0,0,1-1.11-4.35A23.84,23.84,0,0,1,204.24,0h-.35a22.87,22.87,0,0,0,.25,2.74,23.12,23.12,0,0,0,1.13,4.42c.36,1,.76,2,1.15,2.93.24.58.47,1.13.68,1.68a7.7,7.7,0,0,1,.62,4.91,8.71,8.71,0,0,1-1.85,3.66c-2.92,3.5-8.22,6-12.47,8.06l-1.87.9a82.26,82.26,0,0,1-14.71,5c-3.3.89-6.71,1.81-10,3l-.58.22-.57.22a56.16,56.16,0,0,0-11.74,6.28,57.46,57.46,0,0,0-6.32,5.45l-.29.28c-2,1.86-4.17,2.22-6.51,2.59-.5.08-1,.18-1.58.29a12.79,12.79,0,0,0-1.92.56,18.64,18.64,0,0,0-7.5,5.18c-.65.76-1.23,1.52-1.79,2.27a29.33,29.33,0,0,1-2.58,3.09,14.34,14.34,0,0,1-5.4,3.36c-.45.16-.91.31-1.38.44a30.3,30.3,0,0,1-4.22.84c-7.89,1.08-15.81.39-24.2-.34L88.76,68c-2.52-.21-4.58-.44-6.47-.7L80.55,67c-3.53-.5-7.17-1-10.61-.4A27.54,27.54,0,0,0,63.29,69a21.25,21.25,0,0,1-7.48,2.41,7.68,7.68,0,0,1-3.25-.47h-.1c-3.08-1.18-5.63-3.94-8.32-6.83-1.15-1.23-2.33-2.5-3.56-3.63l-1.09-1c-.5-.43-1-.87-1.58-1.32a32.64,32.64,0,0,0-16.85-7.55l-1.14-.14a27.67,27.67,0,0,0-11.13,1.4A75.28,75.28,0,0,0,.14,55.33v.42a71.84,71.84,0,0,1,8.79-3.56,27.21,27.21,0,0,1,11-1.39l1.12.14a32.49,32.49,0,0,1,16.67,7.48c.56.45,1.07.89,1.57,1.32s.72.64,1.08,1c1.22,1.12,2.4,2.39,3.54,3.61,2.74,2.94,5.32,5.71,8.47,6.88a7.85,7.85,0,0,0,3.49.53,21.71,21.71,0,0,0,7.6-2.44A27.6,27.6,0,0,1,70,67c3.39-.62,7-.08,10.5.44l1.74.25c1.9.27,4,.5,6.49.71l1.5.13c8.41.73,16.35,1.42,24.27.34a31.07,31.07,0,0,0,4.27-.87,12.12,12.12,0,0,0,1.4-.45,14.74,14.74,0,0,0,5.53-3.44A29.84,29.84,0,0,0,128.31,61c.56-.74,1.14-1.5,1.78-2.25a18.08,18.08,0,0,1,7.35-5.08,12.24,12.24,0,0,1,1.88-.54c.53-.12,1.07-.21,1.57-.29,2.39-.39,4.65-.75,6.68-2.69l.29-.27a58.22,58.22,0,0,1,6.28-5.46,56.16,56.16,0,0,1,11.67-6.23l.57-.22.58-.22c3.23-1.18,6.64-2.1,9.93-3a81.81,81.81,0,0,0,14.77-5l1.86-.89c4.28-2,9.62-4.59,12.59-8.15A9.05,9.05,0,0,0,208,16.84a8.09,8.09,0,0,0-.63-5.15C207.19,11.1,207,10.54,206.72,10Z"/><path class="cls-3" d="M194.57,1.28c-.23-.4-.46-.82-.68-1.24h-.41c.26.49.52,1,.79,1.44l.31.55c1,1.73,1.71,3.21,1.59,5a7.29,7.29,0,0,1-1.53,4c-2.64,3.6-7.87,6.27-12.08,8.42-.93.48-1.81.93-2.61,1.36a87.31,87.31,0,0,1-14.09,5.62c-2.83.94-5.76,1.91-8.54,3l-.53.22-.53.22a69,69,0,0,0-11,5.86A68.91,68.91,0,0,0,139,40.62l-.13.1a12.85,12.85,0,0,1-6.1,2.48c-.39.09-.92.2-1.46.34a16,16,0,0,0-1.77.59,21.3,21.3,0,0,0-7.09,4.71c-.54.54-1,1.08-1.53,1.61A28.55,28.55,0,0,1,118,53.34,13.71,13.71,0,0,1,112.8,56c-.43.1-.87.2-1.31.28a29.14,29.14,0,0,1-3.95.36c-5.27.12-10.4-.74-15.82-1.65-2.53-.43-5.15-.87-7.84-1.22l-1.34-.17c-1.52-.2-3.09-.4-4.65-.62L77,52.8a39.77,39.77,0,0,0-10.64-.55,32.7,32.7,0,0,0-6,1.65A22.46,22.46,0,0,1,53,55.57,7.36,7.36,0,0,1,49.84,55c-2.58-1.14-4.72-3.5-7-6a48.83,48.83,0,0,0-4.22-4.29c-.36-.3-.72-.6-1.08-.88s-1-.76-1.57-1.16c-4.72-3.34-9.83-5-16.57-5.33H18.31a30.37,30.37,0,0,0-10.54,2A78.48,78.48,0,0,0,.14,42.46v.41a84.38,84.38,0,0,1,7.78-3.3,30.22,30.22,0,0,1,10.39-1.93h1.07c6.76.39,11.67,2,16.42,5.31.55.38,1.06.76,1.55,1.14s.72.57,1.07.87a45.53,45.53,0,0,1,4.19,4.26c2.29,2.52,4.45,4.9,7.1,6.08A7.86,7.86,0,0,0,53,56a23.11,23.11,0,0,0,7.47-1.68,31.9,31.9,0,0,1,6-1.64A36.51,36.51,0,0,1,77,53.24l.88.13c1.56.22,3.14.42,4.66.62l1.34.17c2.68.35,5.3.79,7.82,1.21,5.45.88,10.55,1.75,15.85,1.58a26.8,26.8,0,0,0,4-.37c.44-.08.89-.17,1.33-.28a13.71,13.71,0,0,0,5.36-2.66,28.52,28.52,0,0,0,3-2.92c.49-.52,1-1.07,1.52-1.6a21.22,21.22,0,0,1,7-4.63,16.6,16.6,0,0,1,1.69-.54c.53-.14,1-.25,1.44-.33a13,13,0,0,0,6.26-2.56l.13-.1a69.58,69.58,0,0,1,6.24-4.86,68.32,68.32,0,0,1,10.9-5.83l.53-.23.53-.21c2.77-1.13,5.69-2.1,8.51-3a87.9,87.9,0,0,0,14.16-5.67c.8-.44,1.68-.89,2.61-1.36,4.24-2.17,9.52-4.86,12.21-8.53a7.77,7.77,0,0,0,1.6-4.21c.13-1.91-.63-3.44-1.64-5.23Z"/><path class="cls-3" d="M184.27,0a8,8,0,0,1-.83,1.66c-2.41,3.68-7.59,6.49-11.75,8.76-1.19.64-2.31,1.25-3.31,1.84a101.06,101.06,0,0,1-13.75,6.42c-2.26.92-4.6,1.87-6.83,2.88l-1,.44a100.27,100.27,0,0,0-10.17,5.45c-2.24,1.39-4.25,2.84-6.19,4.25a16.36,16.36,0,0,1-5.69,2.36l-1.34.39c-.56.19-1.11.39-1.62.62a27.69,27.69,0,0,0-6.65,4.23l-1,.88A28.39,28.39,0,0,1,110.61,43a12.48,12.48,0,0,1-5.07,1.82q-.63.09-1.23.12a22.73,22.73,0,0,1-3.69-.12A65.7,65.7,0,0,1,88.87,42,90.54,90.54,0,0,0,79,39.51c-1.72-.31-3.44-.58-5.5-.88A45.51,45.51,0,0,0,62.81,38a40.31,40.31,0,0,0-5.23.92,25.87,25.87,0,0,1-7.43.9A7,7,0,0,1,47.22,39c-2.17-1.14-3.95-3.2-5.83-5.38a33.89,33.89,0,0,0-4.67-4.76c-.37-.28-.72-.54-1.07-.78s-1-.67-1.57-1c-5-2.92-10.19-3.32-16.35-3a8.26,8.26,0,0,0-1,.06,35.55,35.55,0,0,0-10,2.5c-2.22.88-4.45,1.91-6.65,3V30c2.24-1.08,4.51-2.14,6.77-3a35.35,35.35,0,0,1,9.86-2.48c.34,0,.68,0,1-.06,6.1-.29,11.19.11,16.16,3a16.42,16.42,0,0,1,1.55,1,10.63,10.63,0,0,1,1,.77,33,33,0,0,1,4.72,4.66c1.9,2.2,3.7,4.29,5.93,5.46a7.86,7.86,0,0,0,3.06.91,26.5,26.5,0,0,0,7.52-.91,41.46,41.46,0,0,1,5.19-.92,44.81,44.81,0,0,1,10.6.66c2.06.3,3.78.56,5.5.87a92.8,92.8,0,0,1,9.84,2.53,66.37,66.37,0,0,0,11.81,2.74,21.15,21.15,0,0,0,3.73.12,6.88,6.88,0,0,0,1.26-.12,12.9,12.9,0,0,0,5.2-1.86,30.24,30.24,0,0,0,3.58-2.8l1-.88a27.4,27.4,0,0,1,6.6-4.18,13.91,13.91,0,0,1,1.59-.6c.39-.12.81-.25,1.33-.38a16.58,16.58,0,0,0,5.8-2.43c1.93-1.4,3.94-2.85,6.16-4.23A97.71,97.71,0,0,1,147,22.39l1-.44c2.22-1,4.55-2,6.82-2.88a102.82,102.82,0,0,0,13.79-6.43c1-.59,2.11-1.2,3.3-1.84,4.41-2.4,9.42-5.12,11.88-8.88A8.16,8.16,0,0,0,184.68,0Z"/><path class="cls-3" d="M163.14,0q-1.2.72-2.37,1.38c-1.44.83-2.81,1.61-4,2.37a137.86,137.86,0,0,1-14.37,7.85c-1.41.7-2.81,1.39-4.17,2.08l-.87.45c-3.65,1.89-6.64,3.49-9.39,5-1.94,1.1-3.74,2.18-5.65,3.31l-.32.19A26.4,26.4,0,0,1,116.77,25c-.43.14-.83.29-1.22.44s-1,.41-1.47.64a47.94,47.94,0,0,0-6.27,3.76,28.73,28.73,0,0,1-4.67,2.8,11.83,11.83,0,0,1-4.9,1H97.08a19.8,19.8,0,0,1-3.41-.6,53.9,53.9,0,0,1-9.33-3.69,54.11,54.11,0,0,0-10.27-4c-1.5-.37-3.09-.67-5-1a52.4,52.4,0,0,0-9.85-.66c-1.33,0-2.64.17-3.91.28a33.45,33.45,0,0,1-8,.06A7.24,7.24,0,0,1,44.59,23a21,21,0,0,1-4.85-4.89,25.44,25.44,0,0,0-5-5.1,7.89,7.89,0,0,0-1-.65,16.08,16.08,0,0,0-1.6-.82c-5.31-2.44-11-1.57-16.07-.76l-.93.19a43.47,43.47,0,0,0-9.36,3C3.89,14.78,2,15.71.15,16.64v.42c1.9-1,3.83-1.91,5.76-2.76a43.25,43.25,0,0,1,9.29-3l1-.17c4.94-.78,10.57-1.66,15.83.74.53.25,1,.52,1.54.81a8.65,8.65,0,0,1,1,.66,25.14,25.14,0,0,1,4.88,5,21.75,21.75,0,0,0,4.95,5,7.44,7.44,0,0,0,2.84,1.08,33.18,33.18,0,0,0,8.09-.05c1.26-.11,2.57-.23,3.9-.28a53.37,53.37,0,0,1,9.78.66,41.21,41.21,0,0,1,5,1,55.05,55.05,0,0,1,10.23,3.91,55.63,55.63,0,0,0,9.38,3.71,20.85,20.85,0,0,0,3.52.58h1.17a12.32,12.32,0,0,0,5-1A29.67,29.67,0,0,0,108,30.13a46.54,46.54,0,0,1,6.22-3.73c.47-.23,1-.44,1.45-.63s.8-.3,1.2-.44a26.58,26.58,0,0,0,5.35-2.28l.32-.19c1.91-1.14,3.71-2.21,5.65-3.31,2.74-1.55,5.72-3.15,9.37-5l.87-.44c1.36-.7,2.76-1.39,4.17-2.08A140.36,140.36,0,0,0,157,4.16c1.16-.76,2.52-1.53,3.95-2.36,1-.55,2-1.12,2.94-1.72Z"/><path class="cls-3" d="M138.26,0c-3,2-6.33,4-9.89,6a175.12,175.12,0,0,1-19.63,9.79,48.6,48.6,0,0,0-5.3,2.78c-3.9,2.25-7.93,4.58-12.42,3.88-4.3-.68-8.21-3.35-12-5.93-3.12-2.13-6.35-4.33-9.79-5.43-4.43-1.4-9-1.54-13.44-1.68A51.65,51.65,0,0,1,44.5,8.29,7,7,0,0,1,42,7.07a20.71,20.71,0,0,1-4-4.51C37.36,1.71,36.71.85,36,0h-.47C36.28,1,37,1.86,37.68,2.8a21.39,21.39,0,0,0,4.11,4.59,7.38,7.38,0,0,0,2.63,1.27A52.23,52.23,0,0,0,55.78,9.83c4.41.14,9,.28,13.35,1.67,3.39,1.09,6.61,3.27,9.71,5.38,3.81,2.61,7.77,5.3,12.13,6,4.6.73,8.69-1.63,12.64-3.91a47,47,0,0,1,5.26-2.76,176.62,176.62,0,0,0,19.67-9.8Q134.14,3.16,139,0Z"/><path class="cls-3" d="M7.53,0C5,1.18,2.53,2.45.14,3.73v.42C2.87,2.72,5.65,1.28,8.51,0Z"/></g><g class="cls-4"><path class="cls-5" d="M671.47,139.42a19,19,0,0,1-9.59,7.08c-1.46.49-3,1-4.52,1.46-11.2,3.57-23.9,7.61-26.39,19.78-1.2,5.82.61,11.53,2.35,17.06A52,52,0,0,1,636,196.22c.54,7.22-2.34,14.13-8.1,19.44-8.2,7.56-20.72,10.76-31.16,8-14.38-3.85-26.12-14.65-37.48-25.1-2.78-2.55-5.65-5.2-8.51-7.69-13.33-11.61-33.15-23.94-51.85-16.67-22.2,8.63-26.16,34.7-30.35,62.31-3.72,24.5-7.57,49.83-25.21,62.2-14.49,10.17-33.59,7.56-51.9,4L273.38,279.88c-24.29-4.7-51.83-10-77.58-2.75-19.93,5.64-37.16,20.2-45,38a49.58,49.58,0,0,0-4.21,15.05c-.68,7.19,5.1,13.65,9.75,18.84.88,1,1.72,1.93,2.48,2.83a78.37,78.37,0,0,0,6.91,6.85c5,4.57,10.16,9.3,12,15.12,1.29,4.07-.7,11.69-1.89,16.24l-.34,1.32a81.32,81.32,0,0,1-17.16,32.29,99.24,99.24,0,0,1-61.91,33.72c-33.11,4.3-66-5.6-96.4-17.48v1.62C30.53,453.38,63.43,463.21,96.67,459a100.63,100.63,0,0,0,62.78-34.2,83,83,0,0,0,17.47-32.92l.34-1.31c1.32-5,3.31-12.63,1.87-17.16-2-6.22-7.3-11.08-12.44-15.78a76.78,76.78,0,0,1-6.78-6.72c-.77-.91-1.62-1.86-2.51-2.86-4.44-5-10-11.15-9.36-17.62a48.22,48.22,0,0,1,4.1-14.61c7.62-17.39,24.5-31.63,44-37.16,25.45-7.19,52.82-1.9,77,2.77L391.2,304.21c18.59,3.6,38,6.23,52.92-4.23,18.16-12.74,22.06-38.41,25.83-63.24,4.12-27.15,8-52.8,29.44-61.12,18.08-7,37.43,5,50.49,16.42,2.84,2.48,5.71,5.12,8.48,7.67,11.49,10.56,23.38,21.49,38.06,25.41,10.85,2.9,23.88-.44,32.4-8.3,6.12-5.64,9.17-13,8.59-20.73a52.4,52.4,0,0,0-2.75-11.78c-1.75-5.58-3.42-10.84-2.31-16.24,2.32-11.29,14.59-15.2,25.41-18.64,1.55-.49,3.08-1,4.55-1.48a20.13,20.13,0,0,0,9.17-6.16Z"/><path class="cls-5" d="M603,21.1c-3.77-3.74-7.33-7.27-9.66-11.17A28,28,0,0,1,589.54,0h-1.4a29,29,0,0,0,4.08,10.72c2.44,4.06,6.06,7.66,9.9,11.47a95.89,95.89,0,0,1,8,8.72c4.24,5.44,7.79,14.12,5.54,20.3a10.44,10.44,0,0,1-4.23,5.7c-.32.26-.67.53-1,.85C604.85,62.41,599.3,73,597.15,79c-1.24,3.46-2.1,6.62-2.86,9.41C593.05,93,592,97,589.71,100.63c-4.48,2.38-9.65,3.57-16.25,3.72a38.49,38.49,0,0,1-5.36-.34c-1.36-.14-2.77-.29-4.22-.35l-1.09-.06a14.3,14.3,0,0,0-4.66.23c-2.68.74-4.2,4.5-5.54,7.83a30.79,30.79,0,0,1-1.48,3.32,18,18,0,0,1-8.25,7.93c-1.32.61-2.7,1.2-4.1,1.79-7,3-14.34,6.1-17.36,12.67-1.55,3.36-1.61,6.56-1.67,9.66a28.81,28.81,0,0,1-.54,6,13.81,13.81,0,0,1-3.31,6.2c-5.75,6.29-16.59,9.09-25.79,6.66-10.32-2.72-19.15-9.72-27.7-16.49l-1-.83-3.62-2.84c-11.38-8.8-21.09-13.37-29.7-14a22.68,22.68,0,0,0-5.27.26c-7.85,1.35-13.19,6.2-16.79,15.26-1.87,4.7-3.45,9.8-4.94,14.7-1,3.2-2,6.49-3.06,9.69-5,14.74-10.54,28.49-22.87,34.67-11.67,5.87-25.54,4.3-39,2.79l-3.73-.41c-5.68-.61-10.66-1-15.2-1.25a130.57,130.57,0,0,0-30.39,1.74,112.07,112.07,0,0,0-16.3,4.3c-4.41,1.52-9.26.81-14.39.06a67.66,67.66,0,0,0-8.63-.88,62.83,62.83,0,0,0-6.5.17,42.1,42.1,0,0,0-11.67,2.55c-2.81,1.09-5.29,2.26-7.9,3.51-1.33.63-2.67,1.27-4.09,1.91-4,1.77-8.4,3.36-13.11,5-4.4,1.58-8.95,3.21-13.45,5.11L188.3,232A113.34,113.34,0,0,0,150,260.66a69.55,69.55,0,0,0-6.46,8.8c-2.25,3.75-1.87,7-1.59,9.42a15,15,0,0,1,.15,1.89,10.39,10.39,0,0,0,.78,3.56,9.15,9.15,0,0,1,.39,6.37,29.88,29.88,0,0,1-1.9,4.05c-.56,1.05-1.16,2.15-1.76,3.25-.75,1.39-1.5,2.75-2.12,4l-.57,1.1c-4.15,8.1-8.87,17.28-15.8,23-8.42,7-19.14,8.75-32.77,5.48a121.33,121.33,0,0,1-16.79-5.75,143.83,143.83,0,0,0-16.25-5.76A96.83,96.83,0,0,0,34.51,317c-8.18-.45-16.49-.32-24.52-.19-3.27.05-6.59.09-9.89.1v1.53c3.31,0,6.64-.05,9.91-.11,8-.12,16.3-.26,24.43.19A96.54,96.54,0,0,1,55,321.6a141.56,141.56,0,0,1,16.14,5.66,123,123,0,0,0,17,5.81c14.06,3.38,25.16,1.49,33.93-5.75,7.17-5.93,12-15.26,16.18-23.49l.57-1.1c.62-1.19,1.35-2.55,2.11-3.93.6-1.1,1.2-2.21,1.76-3.26a29.68,29.68,0,0,0,2-4.32,10.6,10.6,0,0,0-.41-7.4,8.63,8.63,0,0,1-.69-3,16.49,16.49,0,0,0-.16-2.1c-.27-2.28-.6-5.12,1.37-8.39a68.25,68.25,0,0,1,6.32-8.61,111.8,111.8,0,0,1,37.8-28.29c.82-.37,1.64-.73,2.46-1.07,4.46-1.89,9-3.51,13.37-5.08,4.74-1.7,9.22-3.3,13.21-5.09,1.43-.64,2.78-1.29,4.11-1.92,2.6-1.24,5.05-2.41,7.81-3.48a40.57,40.57,0,0,1,11.3-2.45,61.6,61.6,0,0,1,6.37-.18A66.8,66.8,0,0,1,256,215c5.29.77,10.29,1.5,15-.13a112.12,112.12,0,0,1,16.12-4.24,128.87,128.87,0,0,1,30-1.72c4.52.23,9.47.64,15.13,1.25l3.72.41c13.61,1.53,27.68,3.12,39.71-2.92,12.81-6.43,18.47-20.48,23.59-35.53,1.09-3.22,2.1-6.53,3.08-9.74,1.48-4.85,3-9.88,4.82-14.48,3.39-8.54,8.38-13.1,15.71-14.36a20.93,20.93,0,0,1,5-.25c8.34.57,17.81,5,29,13.68l3.61,2.84,1,.82c8.66,6.86,17.6,13.94,28.2,16.75,9.64,2.55,21.05-.43,27.12-7.08a15.34,15.34,0,0,0,3.67-6.89,29.45,29.45,0,0,0,.59-6.35c.06-3.06.11-5.95,1.52-9,2.78-6,9.82-9,16.62-11.93,1.41-.6,2.8-1.19,4.13-1.8a19.35,19.35,0,0,0,8.89-8.54,29.87,29.87,0,0,0,1.58-3.51c1.15-2.85,2.58-6.41,4.6-7a13.07,13.07,0,0,1,4.23-.19l1.12.07a39.43,39.43,0,0,1,4.13.34,39.3,39.3,0,0,0,5.53.35c6.9-.17,12.3-1.43,17-4l.17-.09.1-.17c2.45-3.91,3.58-8,4.87-12.81.79-2.89,1.61-5.89,2.82-9.29,2.43-6.79,8-16.57,12.84-20.54l1-.83a11.8,11.8,0,0,0,4.7-6.45c2.83-7.76-2.3-17.38-5.78-21.84A94.85,94.85,0,0,0,603,21.1Z"/><path class="cls-5" d="M441.6,0c2.09,4.53,3,9.77.19,12.94-1.75,2-2.81,1.63-4.57,1.09a10.69,10.69,0,0,0-4.08-.62c-3,.19-5.9,2.22-8.29,5.72-3.26,4.78-4.91,11.46-3.92,15.88,1.34,6,4.47,11.25,7.49,16.33,2.78,4.68,5.66,9.51,7.07,14.84,2.22,8.38.48,17.39-4.91,25.38-7.29,10.81-19.87,18-32,18.41-9.88.3-20.31-2.4-31.86-8.26-4.74-2.4-9.41-5.34-13.92-8.19l-3.34-2.1c-3.63-2.26-6.42-3-8.78-2.24-2,.62-3.62,2.24-5,5-1.85,3.76-4.08,7.65-7.75,10.65a43.68,43.68,0,0,1-20.87,9c-7.24,1.11-14.72,1-21.95.81-7.74-.16-15.74-.32-23.52,1a43,43,0,0,0-22.33,11.1C236,130.05,234,133.57,232,137.3c-.52.93-1,1.88-1.61,2.85-2.51,4.31-5.91,4-9.84,3.61a20.16,20.16,0,0,0-6.93.15,16.52,16.52,0,0,0-12.08,10.36,43.36,43.36,0,0,0-1.81,7.2,43.72,43.72,0,0,1-1.54,6.39c-2.77,8-9.89,13.44-15.6,17.83-18.28,14-36.32,26.39-56.15,23.89-1.73-.22-3.52-.56-5.25-.89-5.35-1-10.88-2.07-16,.11-4.6,1.95-7.86,6.12-11,10.16-3,3.79-6,7.72-10.16,9.61-10.37,4.77-21.68-4.9-27.8-15.89-1.42-2.56-2.78-5.31-4.09-8-4.33-8.76-8.81-17.81-16.78-22.8-5.27-3.3-11.17-4.49-18.1-3.65A62.52,62.52,0,0,0,.14,183.35V185c5.78-2.53,11.58-4.57,17.27-5.26,6.6-.79,12.24.34,17.21,3.46,7.62,4.78,12,13.63,16.25,22.2,1.32,2.67,2.68,5.43,4.13,8C61.38,225,73.36,235.06,84.51,230c4.43-2,7.61-6.1,10.69-10s6.18-7.91,10.46-9.72c4.75-2,10.08-1,15.23,0,1.76.33,3.57.68,5.34.9,20.32,2.57,38.61-10,57.12-24.16,5.87-4.5,13.18-10.11,16.11-18.53a47.27,47.27,0,0,0,1.6-6.62,41.35,41.35,0,0,1,1.74-6.93,15.2,15.2,0,0,1,11.08-9.45,19.17,19.17,0,0,1,6.5-.12c4,.39,8.18.79,11.15-4.32.57-1,1.1-1.93,1.63-2.88,2-3.62,3.92-7.05,7-10.07a41.7,41.7,0,0,1,21.62-10.73c7.65-1.34,15.59-1.18,23.27-1,7.28.15,14.82.3,22.17-.82a45.17,45.17,0,0,0,21.52-9.35C332.62,103,335,98.91,336.88,95c1.16-2.33,2.5-3.71,4.11-4.21,2-.61,4.42.06,7.7,2.1L352,95c4.54,2.86,9.23,5.82,14,8.25,11.77,6,22.4,8.71,32.5,8.4,12.6-.38,25.61-7.86,33.15-19,5.65-8.38,7.47-17.86,5.13-26.7-1.47-5.55-4.41-10.48-7.24-15.25-3-5-6-10.12-7.31-15.86-.9-4,.65-10.17,3.68-14.61,2.21-3.26,4.78-5.07,7.32-5.26a9.5,9.5,0,0,1,3.58.57c1.87.57,3.64,1.12,6-1.49,3.26-3.65,2.42-9.2.34-14Z"/><path class="cls-5" d="M317.08,0c-2,.66-4.11,1.33-6.2,2.06-5.06,1.74-10.5,3.85-16.17,6.34A98,98,0,0,0,278,17.74a12.19,12.19,0,0,0-1.61,1.43c-1,1-1.91,1.93-3.36,2a13.31,13.31,0,0,1-2.66-.44c-1.08-.26-2.23-.62-3.33-1a28.42,28.42,0,0,0-3-.85,26.8,26.8,0,0,0-12.56.22,10.74,10.74,0,0,0-2.72,1.11c-3.35,1.95-5.05,5-5.33,9.52a26.9,26.9,0,0,0,0,2.84,31.41,31.41,0,0,0,.45,3.87,14.32,14.32,0,0,1,.26,4.57A8.14,8.14,0,0,1,242,45.39C238.14,49.7,231,52.55,226,54.32c-5.4,1.9-11.16,2.7-16.73,3.48a103.94,103.94,0,0,0-14,2.61c-.48.14-1,.28-1.45.44a43.92,43.92,0,0,0-14.25,7.59,42.87,42.87,0,0,0-6.46,7l-.87,1.08c-2,2.48-4.4,2.6-7.18,2.74-.72,0-1.45.08-2.18.15a12.84,12.84,0,0,0-2.45.5,15.81,15.81,0,0,0-9,6.83,39.26,39.26,0,0,0-2,4,31.76,31.76,0,0,1-2,4,19.13,19.13,0,0,1-7.31,6.43,49.87,49.87,0,0,1-5,2.25C124,107.86,114,110,103.53,110.1a54.5,54.5,0,0,1-7.87-.45c-1-.14-2.09-.32-3.14-.49-4-.65-8-1.33-11.9-.22-3.23.91-5.8,2.88-8.28,4.78s-5,3.81-8,4.51a8.66,8.66,0,0,1-3.79,0c-5.28-1.07-10-6.51-14.25-11.31l-.61-.71-1.56-1.79c-5.89-6.78-11.24-12.47-19.24-15a24.53,24.53,0,0,0-13.14-.28A61.37,61.37,0,0,0,.14,93.27V95A62.36,62.36,0,0,1,12,90.6a23.09,23.09,0,0,1,12.45.24c7.65,2.45,12.65,7.78,18.47,14.52.5.59,1,1.19,1.57,1.81l.61.7c4.36,5,9.29,10.61,15,11.76a9.93,9.93,0,0,0,4.34,0c3.32-.76,6-2.79,8.55-4.75,2.38-1.83,4.85-3.71,7.83-4.56,3.58-1,7.52-.37,11.32.26,1.07.17,2.13.35,3.18.49a55.71,55.71,0,0,0,8.06.47c10.6-.12,20.8-2.28,32.11-6.78a50.74,50.74,0,0,0,5.1-2.31,20.65,20.65,0,0,0,7.85-6.93,34.44,34.44,0,0,0,2.15-4.13,36.49,36.49,0,0,1,2-3.82,14.45,14.45,0,0,1,8.22-6.2,11.77,11.77,0,0,1,2.2-.45c.71-.07,1.41-.11,2.11-.14,2.84-.15,5.78-.3,8.18-3.27l.86-1.09a42.39,42.39,0,0,1,6.25-6.73,42.68,42.68,0,0,1,13.79-7.35c.47-.15,1-.29,1.42-.42a103.72,103.72,0,0,1,13.86-2.58c5.63-.78,11.46-1.59,17-3.54C231.67,54,239,51,243,46.47a10,10,0,0,0,2.52-5.17,15.9,15.9,0,0,0-.26-5.1,28.26,28.26,0,0,1-.43-3.67,24,24,0,0,1,0-2.68c.25-4,1.66-6.58,4.59-8.28a9.24,9.24,0,0,1,2.38-1,25.41,25.41,0,0,1,11.95-.21c.8.17,1.84.49,2.93.82s2.29.71,3.41,1a12.68,12.68,0,0,0,3,.47c2,0,3.23-1.26,4.31-2.35a10.49,10.49,0,0,1,1.4-1.26,96.37,96.37,0,0,1,16.5-9.17C301,7.42,306.38,5.3,311.4,3.57c3.07-1.07,6.11-2,9.06-3L322.14,0Z"/><path class="cls-5" d="M6.14,0c-2,1-4,2-6,3.05v1.7A108.76,108.76,0,0,1,10,0Z"/><path class="cls-5" d="M137.23,0q-4.23,2.7-9.09,5.53a173.84,173.84,0,0,1-19.57,9.73,49.61,49.61,0,0,0-5.36,2.8c-4,2.31-7.78,4.5-12.09,3.82s-8.06-3.29-11.79-5.84c-3.19-2.13-6.42-4.37-10-5.49C64.88,9.16,60.27,9,55.81,8.88A51.35,51.35,0,0,1,44.62,7.73,6.6,6.6,0,0,1,42.28,6.6h0a20.23,20.23,0,0,1-3.91-4.4C37.83,1.48,37.27.75,36.7,0H34.76a36,36,0,0,1,2.51,3.12,21.7,21.7,0,0,0,4.22,4.7A7.81,7.81,0,0,0,44.3,9.22,52.68,52.68,0,0,0,55.77,10.4c4.37.14,8.89.28,13.21,1.65,3.32,1.06,6.51,3.22,9.58,5.32,3.86,2.63,7.85,5.36,12.33,6.06,4.78.75,8.94-1.65,13-4a46.8,46.8,0,0,1,5.2-2.73A174,174,0,0,0,128.78,7q6.1-3.53,11.2-6.88Z"/></g></g></g></g></svg>